<svg width="24" height="24" viewBox="0 0 24 24" fill="none" xmlns="http://www.w3.org/2000/svg">
<path fill-rule="evenodd" clip-rule="evenodd" d="M16 6.75L15.9814 6.74977H8.01864L8 6.75L7.98136 6.74977H6.99998C5.30998 6.74977 4.14998 7.07977 3.55998 7.73977C3.06998 8.27977 2.90998 9.10977 3.03998 10.3498L3.07077 10.6786C4.93933 11.9453 7.05661 12.7976 9.25 13.1732V13C9.25 11.59 9.59 11.25 11 11.25H13C14.41 11.25 14.75 11.59 14.75 13V13.142C16.9748 12.7407 19.0974 11.863 20.939 10.583L20.96 10.3598C21.09 9.10977 20.93 8.27977 20.44 7.73977C19.85 7.07977 18.69 6.74977 17 6.74977H16.0186L16 6.75ZM9.27122 14.6959C7.16313 14.3738 5.11037 13.6445 3.24683 12.5589L3.78998 18.3598C3.95998 19.9398 4.38998 21.2498 7.99998 21.2498H16C19.6 21.2498 20.04 19.9398 20.21 18.3498L20.7606 12.4841C18.9151 13.5777 16.8662 14.3236 14.7288 14.6767C14.6426 15.6491 14.2065 16.75 12 16.75C9.7934 16.75 9.35738 15.6555 9.27122 14.6959ZM21.7 18.4998L22.3942 11.1037C22.3976 11.0799 22.3999 11.0559 22.401 11.0319L22.45 10.5098C22.56 9.44977 22.59 7.89977 21.55 6.73977C20.66 5.74977 19.17 5.25977 17 5.25977H16.75V5.2C16.75 3.44 16.75 1.25 12.8 1.25H11.2C7.25 1.25 7.25 3.44 7.25 5.2V5.25977H6.99998C4.83998 5.25977 3.34998 5.73977 2.44998 6.73977C1.40998 7.89977 1.43998 9.44977 1.54998 10.4998L2.29998 18.5098C2.51998 20.5998 3.37998 22.7498 7.99998 22.7498H16C20.62 22.7498 21.48 20.5998 21.7 18.4998ZM15.25 5.25977H8.75V5.2C8.75 3.42 8.75 2.75 11.2 2.75H12.8C15.25 2.75 15.25 3.42 15.25 5.2V5.25977ZM10.75 13V12.75H11H13H13.25V13V14.02C13.25 15.09 13.25 15.25 12 15.25C10.75 15.25 10.75 15.06 10.75 14.03V13Z" fill="url(#paint0_linear_0_5259)"/>
<defs>
<linearGradient id="paint0_linear_0_5259" x1="1.4978" y1="22.7498" x2="23.5759" y2="21.5839" gradientUnits="userSpaceOnUse">
<stop stop-color="#3E32D1"/>
<stop offset="1" stop-color="#4C91FF"/>
</linearGradient>
</defs>
</svg>
