<svg width="24" height="24" viewBox="0 0 24 24" fill="none" xmlns="http://www.w3.org/2000/svg">
<path fill-rule="evenodd" clip-rule="evenodd" d="M11.6699 17.7499C11.4886 17.8822 11.3241 17.9905 11.1682 18.0807C11.0616 19.2204 10.5696 20.2708 9.76011 21.0891C8.99011 21.8491 8.00011 22.3191 6.88011 22.4591L4.41011 22.7291L4.40999 22.7291C4.30003 22.7391 4.19007 22.7491 4.08011 22.7491C3.33011 22.7491 2.61011 22.4491 2.07011 21.9091C1.45011 21.2891 1.15011 20.4291 1.25011 19.5491L1.52011 17.0891C1.76274 14.8121 3.52062 13.0838 5.76981 12.8223C5.89092 12.5971 6.03314 12.3908 6.18991 12.2099L7.72991 10.2699C10.3799 6.95992 15.7499 2.97992 19.6799 1.39992C20.5099 1.07992 21.3999 1.26992 22.0099 1.86992C22.6399 2.49992 22.8299 3.39992 22.4999 4.21992C20.9199 8.15992 16.9499 13.5199 13.6399 16.1699L11.6699 17.7499ZM12.7099 15.0099L11.026 16.3651C10.8144 15.5654 10.394 14.843 9.77011 14.2191C9.14092 13.5899 8.38811 13.1494 7.5484 12.9291L8.88991 11.2199C9.08251 10.9799 9.29011 10.7363 9.51097 10.4902C11.6596 10.4907 13.423 12.2047 13.4881 14.3474C13.2256 14.5839 12.9657 14.8055 12.7099 15.0099ZM14.7979 13.0678C14.2876 11.1438 12.7533 9.63064 10.8174 9.15051C13.5212 6.5734 17.2942 3.98962 20.2199 2.80992C20.6199 2.65992 20.8799 2.87992 20.9499 2.94992C21.0499 3.03992 21.2599 3.29992 21.1099 3.66992C19.9409 6.60421 17.3685 10.3695 14.7979 13.0678ZM3.01011 17.2591C3.20635 15.3948 4.75039 14.3682 6.23478 14.3018C6.26285 14.3028 6.29126 14.3021 6.31991 14.2999L6.33425 14.2991H6.45011H6.60303C6.66422 14.3018 6.72119 14.3059 6.76991 14.3099C7.48991 14.3999 8.15991 14.7399 8.69991 15.2799C9.23991 15.8199 9.55991 16.4399 9.64991 17.1499C9.66991 17.3099 9.67991 17.4699 9.67991 17.6199L9.68003 17.6334C9.67373 18.5443 9.31446 19.3947 8.68011 20.0291C8.16011 20.5491 7.47011 20.8691 6.70011 20.9691L4.24011 21.2391C3.83011 21.2891 3.42011 21.1391 3.13011 20.8491C2.84011 20.5491 2.69011 20.1391 2.74011 19.7191L3.01011 17.2591Z" fill="url(#paint0_linear_0_5224)"/>
<defs>
<linearGradient id="paint0_linear_0_5224" x1="1.2312" y1="22.7491" x2="23.7526" y2="21.536" gradientUnits="userSpaceOnUse">
<stop stop-color="#3E32D1"/>
<stop offset="1" stop-color="#4C91FF"/>
</linearGradient>
</defs>
</svg>
