<svg width="24" height="24" viewBox="0 0 24 24" fill="none" xmlns="http://www.w3.org/2000/svg">
<path fill-rule="evenodd" clip-rule="evenodd" d="M4.07997 22.7507H12.5C12.5152 22.7507 12.5302 22.7502 12.5452 22.7493H18.81C21.37 22.7493 22.72 21.3993 22.73 18.8393V15.0593C22.73 14.9493 22.73 14.8493 22.72 14.8493C22.66 12.8593 21.66 11.6893 19.67 11.2493L17.6912 10.8075C17.6711 10.8011 17.6507 10.7954 17.63 10.7905L13.25 9.8074V7.41068C13.25 6.07068 12.3 4.56068 11.09 3.96068L6.64997 1.78068C5.23997 1.08068 3.87997 1.06068 2.82997 1.72068C1.78997 2.37068 1.21997 3.56068 1.21997 5.09068V19.9307C1.21997 21.4907 2.50997 22.7507 4.07997 22.7507ZM15.22 17.7505C14.4678 17.7505 13.778 17.4699 13.25 17.0083V21.2493H18.81C20.57 21.2493 21.22 20.5993 21.22 18.8393V17.3497C20.7787 17.6049 20.2663 17.7506 19.72 17.7506C18.8269 17.7506 18.0217 17.3551 17.4709 16.7306C16.9217 17.3557 16.1176 17.7505 15.22 17.7505ZM16.72 14.7505V12.1305L13.72 11.4605V14.7505C13.72 15.5805 14.39 16.2505 15.22 16.2505C16.05 16.2505 16.72 15.5805 16.72 14.7505ZM20.3275 13.0766C20.8428 13.3927 21.1082 13.8727 21.1931 14.6121C21.201 14.6919 21.2066 14.7747 21.21 14.8606C21.16 15.6406 20.51 16.2506 19.72 16.2506C18.89 16.2506 18.22 15.5806 18.22 14.7506V14.7405V12.4606L19.34 12.7106C19.74 12.7999 20.0661 12.9184 20.3275 13.0766ZM3.61997 3.00068C3.88997 2.83068 4.20997 2.75068 4.55997 2.75068C4.98997 2.75068 5.46997 2.88068 5.97997 3.13068L10.42 5.31068C11.13 5.65068 11.75 6.64068 11.75 7.41068V21.2507H4.07997C3.32997 21.2507 2.71997 20.6607 2.71997 19.9307V5.09068C2.71997 4.11068 3.03997 3.36068 3.61997 3.00068ZM8.97 9.75H5.5C5.09 9.75 4.75 9.41 4.75 9C4.75 8.59 5.09 8.25 5.5 8.25H8.97C9.38 8.25 9.72 8.59 9.72 9C9.72 9.41 9.39 9.75 8.97 9.75ZM5.5 13.75H8.97C9.39 13.75 9.72 13.41 9.72 13C9.72 12.59 9.38 12.25 8.97 12.25H5.5C5.09 12.25 4.75 12.59 4.75 13C4.75 13.41 5.09 13.75 5.5 13.75Z" fill="url(#paint0_linear_0_5248)"/>
<defs>
<linearGradient id="paint0_linear_0_5248" x1="1.21997" y1="22.7507" x2="23.8266" y2="21.5287" gradientUnits="userSpaceOnUse">
<stop stop-color="#3E32D1"/>
<stop offset="1" stop-color="#4C91FF"/>
</linearGradient>
</defs>
</svg>
