<svg width="24" height="24" viewBox="0 0 24 24" fill="none" xmlns="http://www.w3.org/2000/svg">
<path fill-rule="evenodd" clip-rule="evenodd" d="M7.25 5C7.25 5.41 7.59 5.75 8 5.75C8.41 5.75 8.75 5.41 8.75 5V4.25H15.25V5C15.25 5.41 15.59 5.75 16 5.75C16.41 5.75 16.75 5.41 16.75 5V4.28515C19.0545 4.51256 20.2019 5.84536 20.2485 8.33984H3.75148C3.79811 5.84536 4.94552 4.51256 7.25 4.28515V5ZM8.75 2.75V2C8.75 1.59 8.41 1.25 8 1.25C7.59 1.25 7.25 1.59 7.25 2V2.78123C4.06383 3.05437 2.25 5.1078 2.25 8.5V17C2.25 20.65 4.35 22.75 8 22.75H16C19.65 22.75 21.75 20.65 21.75 17V8.5C21.75 5.1078 19.9362 3.05437 16.75 2.78123V2C16.75 1.59 16.41 1.25 16 1.25C15.59 1.25 15.25 1.59 15.25 2V2.75H8.75ZM3.75 9.83984V17C3.75 19.86 5.14 21.25 8 21.25H16C18.86 21.25 20.25 19.86 20.25 17V9.83984H3.75ZM8.5 14.5003C8.37 14.5003 8.24 14.4703 8.12 14.4203C7.99 14.3703 7.89 14.3003 7.79 14.2103C7.61 14.0203 7.5 13.7703 7.5 13.5003C7.5 13.3703 7.53 13.2403 7.58 13.1203C7.63 13.0003 7.7 12.8903 7.79 12.7903C7.89 12.7003 7.99 12.6303 8.12 12.5803C8.48 12.4303 8.93 12.5103 9.21 12.7903C9.39 12.9803 9.5 13.2403 9.5 13.5003C9.5 13.5603 9.49 13.6303 9.48 13.7003C9.47 13.7603 9.45 13.8203 9.42 13.8803C9.4 13.9403 9.37 14.0003 9.33 14.0603C9.31001 14.0936 9.28113 14.127 9.25225 14.1603L9.25223 14.1603C9.23779 14.177 9.22334 14.1936 9.21 14.2103C9.02 14.3903 8.76 14.5003 8.5 14.5003ZM11.62 14.4209C11.74 14.4709 11.87 14.5008 12 14.5008C12.26 14.5008 12.52 14.3908 12.71 14.2108C12.7233 14.1942 12.7378 14.1775 12.7522 14.1608L12.7522 14.1608L12.7522 14.1608L12.7523 14.1608L12.7523 14.1608L12.7523 14.1608L12.7523 14.1608C12.7811 14.1275 12.81 14.0942 12.83 14.0608C12.87 14.0008 12.9 13.9409 12.92 13.8809C12.95 13.8209 12.97 13.7609 12.98 13.7009C12.99 13.6309 13 13.5609 13 13.5008C13 13.2408 12.89 12.9809 12.71 12.7909C12.43 12.5109 11.98 12.4208 11.62 12.5808C11.49 12.6308 11.39 12.7009 11.29 12.7909C11.2 12.8909 11.13 13.0008 11.08 13.1208C11.03 13.2408 11 13.3708 11 13.5008C11 13.7709 11.11 14.0208 11.29 14.2108C11.39 14.3008 11.49 14.3709 11.62 14.4209ZM15.5 14.5008C15.37 14.5008 15.24 14.4709 15.12 14.4209C14.99 14.3709 14.89 14.3008 14.79 14.2108L14.67 14.0608C14.63 14.0008 14.6 13.9409 14.58 13.8809C14.55 13.8209 14.53 13.7609 14.52 13.7009C14.51 13.6309 14.5 13.5609 14.5 13.5008C14.5 13.2408 14.61 12.9809 14.79 12.7909C14.89 12.7009 14.99 12.6308 15.12 12.5808C15.49 12.4208 15.93 12.5109 16.21 12.7909C16.39 12.9809 16.5 13.2408 16.5 13.5008C16.5 13.5609 16.49 13.6309 16.48 13.7009C16.47 13.7609 16.45 13.8209 16.42 13.8809C16.4 13.9409 16.37 14.0008 16.33 14.0608C16.31 14.0942 16.2811 14.1275 16.2523 14.1608L16.2523 14.1608L16.2523 14.1608L16.2522 14.1608L16.2522 14.1608L16.2522 14.1608C16.2378 14.1775 16.2233 14.1942 16.21 14.2108C16.02 14.3908 15.76 14.5008 15.5 14.5008ZM8.12 17.9192C8.24 17.9692 8.37 17.9992 8.5 17.9992C8.76 17.9992 9.02 17.8892 9.21 17.7092C9.39 17.5192 9.5 17.2592 9.5 16.9992C9.5 16.7392 9.39 16.4792 9.21 16.2892C8.84 15.9192 8.16 15.9192 7.79 16.2892C7.7 16.3792 7.63 16.4892 7.58 16.6192C7.53 16.7392 7.5 16.8692 7.5 16.9992C7.5 17.2592 7.61 17.5192 7.79 17.7092C7.89 17.7992 8 17.8692 8.12 17.9192ZM12 17.9992C11.74 17.9992 11.48 17.8892 11.29 17.7092C11.11 17.5192 11 17.2592 11 16.9992C11 16.8692 11.03 16.7392 11.08 16.6192C11.13 16.4892 11.2 16.3792 11.29 16.2892C11.66 15.9192 12.34 15.9192 12.71 16.2892C12.8 16.3792 12.87 16.4892 12.92 16.6192C12.97 16.7392 13 16.8692 13 16.9992C13 17.2592 12.89 17.5192 12.71 17.7092C12.52 17.8892 12.26 17.9992 12 17.9992ZM14.79 17.7109C14.98 17.8909 15.24 18.0009 15.5 18.0009C15.76 18.0009 16.02 17.8909 16.21 17.7109C16.39 17.5209 16.5 17.2609 16.5 17.0009C16.5 16.7409 16.39 16.4809 16.21 16.2909C16.1933 16.2776 16.1767 16.2631 16.16 16.2487C16.1267 16.2198 16.0933 16.1909 16.06 16.1709C16 16.1309 15.94 16.1009 15.88 16.0809C15.82 16.0509 15.76 16.0309 15.69 16.0209C15.37 15.9509 15.02 16.0609 14.79 16.2909C14.7 16.3809 14.63 16.4909 14.58 16.6209C14.53 16.7409 14.5 16.8709 14.5 17.0009C14.5 17.1309 14.53 17.2609 14.58 17.3809C14.63 17.5109 14.7 17.6209 14.79 17.7109Z" fill="url(#paint0_linear_0_5299)"/>
<defs>
<linearGradient id="paint0_linear_0_5299" x1="2.25" y1="22.75" x2="22.7548" y2="21.7448" gradientUnits="userSpaceOnUse">
<stop stop-color="#3E32D1"/>
<stop offset="1" stop-color="#4C91FF"/>
</linearGradient>
</defs>
</svg>
