<svg width="24" height="24" viewBox="0 0 24 24" fill="none" xmlns="http://www.w3.org/2000/svg">
<path fill-rule="evenodd" clip-rule="evenodd" d="M12 22.75C6.07 22.75 1.25 17.93 1.25 12C1.25 6.07 6.07 1.25 12 1.25C17.93 1.25 22.75 6.07 22.75 12C22.75 17.93 17.93 22.75 12 22.75ZM12 2.75C6.9 2.75 2.75 6.9 2.75 12C2.75 17.1 6.9 21.25 12 21.25C17.1 21.25 21.25 17.1 21.25 12C21.25 6.9 17.1 2.75 12 2.75ZM7.46994 14.5295C7.61994 14.6795 7.80994 14.7495 7.99994 14.7495C8.18994 14.7495 8.37994 14.6795 8.52994 14.5295C8.81994 14.2395 8.81994 13.7595 8.52994 13.4695L7.05994 11.9995L8.52994 10.5295C8.81994 10.2395 8.81994 9.75945 8.52994 9.46945C8.23994 9.17945 7.75994 9.17945 7.46994 9.46945L5.46994 11.4695C5.17994 11.7595 5.17994 12.2395 5.46994 12.5295L7.46994 14.5295ZM15.4699 14.5295C15.6199 14.6795 15.8099 14.7495 15.9999 14.7495C16.1899 14.7495 16.3799 14.6795 16.5299 14.5295L18.5299 12.5295C18.8199 12.2395 18.8199 11.7595 18.5299 11.4695L16.5299 9.46945C16.2399 9.17945 15.7599 9.17945 15.4699 9.46945C15.1799 9.75945 15.1799 10.2395 15.4699 10.5295L16.9399 11.9995L15.4699 13.4695C15.1799 13.7595 15.1799 14.2395 15.4699 14.5295ZM10.7101 15.0206C10.8001 15.0606 10.9001 15.0806 11.0001 15.0806C11.2901 15.0806 11.5701 14.9105 11.6901 14.6305L13.6901 9.96056C13.8601 9.57056 13.6801 9.13051 13.3001 8.97051C12.9201 8.80051 12.4801 8.98053 12.3201 9.36053L10.3201 14.0306C10.1501 14.4206 10.3301 14.8606 10.7101 15.0206Z" fill="url(#paint0_linear_0_5159)"/>
<defs>
<linearGradient id="paint0_linear_0_5159" x1="1.25" y1="22.75" x2="23.8461" y2="21.5286" gradientUnits="userSpaceOnUse">
<stop stop-color="#3E32D1"/>
<stop offset="1" stop-color="#4C91FF"/>
</linearGradient>
</defs>
</svg>
