<svg width="24" height="24" viewBox="0 0 24 24" fill="none" xmlns="http://www.w3.org/2000/svg">
<path d="M15 22.75H9C3.57 22.75 1.25 20.43 1.25 15V9C1.25 3.57 3.57 1.25 9 1.25H15C20.43 1.25 22.75 3.57 22.75 9V15C22.75 20.43 20.43 22.75 15 22.75ZM9 2.75C4.39 2.75 2.75 4.39 2.75 9V15C2.75 19.61 4.39 21.25 9 21.25H15C19.61 21.25 21.25 19.61 21.25 15V9C21.25 4.39 19.61 2.75 15 2.75H9Z" fill="url(#paint0_linear_0_5330)"/>
<path d="M8.81994 9.75043C7.96994 9.75043 7.11994 9.43043 6.46994 8.78043C6.17994 8.49043 6.17994 8.01043 6.46994 7.72043C6.75994 7.43043 7.23994 7.43043 7.52994 7.72043C8.23994 8.43043 9.39994 8.43043 10.1099 7.72043C10.3999 7.43043 10.8799 7.43043 11.1699 7.72043C11.4599 8.01043 11.4599 8.49043 11.1699 8.78043C10.5199 9.42043 9.66994 9.75043 8.81994 9.75043Z" fill="url(#paint1_linear_0_5330)"/>
<path d="M15.18 9.75043C14.33 9.75043 13.48 9.43043 12.83 8.78043C12.54 8.49043 12.54 8.01043 12.83 7.72043C13.12 7.43043 13.6 7.43043 13.89 7.72043C14.6 8.43043 15.76 8.43043 16.47 7.72043C16.76 7.43043 17.24 7.43043 17.53 7.72043C17.82 8.01043 17.82 8.49043 17.53 8.78043C16.88 9.42043 16.03 9.75043 15.18 9.75043Z" fill="url(#paint2_linear_0_5330)"/>
<path d="M12 19.15C9.1 19.15 6.75 16.79 6.75 13.9C6.75 12.99 7.49 12.25 8.4 12.25H15.6C16.51 12.25 17.25 12.99 17.25 13.9C17.25 16.79 14.9 19.15 12 19.15ZM8.4 13.75C8.32 13.75 8.25 13.82 8.25 13.9C8.25 15.97 9.93 17.65 12 17.65C14.07 17.65 15.75 15.97 15.75 13.9C15.75 13.82 15.68 13.75 15.6 13.75H8.4Z" fill="url(#paint3_linear_0_5330)"/>
<defs>
<linearGradient id="paint0_linear_0_5330" x1="1.25" y1="22.75" x2="23.8461" y2="21.5286" gradientUnits="userSpaceOnUse">
<stop stop-color="#3E32D1"/>
<stop offset="1" stop-color="#4C91FF"/>
</linearGradient>
<linearGradient id="paint1_linear_0_5330" x1="6.25244" y1="9.75043" x2="11.5837" y2="9.09203" gradientUnits="userSpaceOnUse">
<stop stop-color="#3E32D1"/>
<stop offset="1" stop-color="#4C91FF"/>
</linearGradient>
<linearGradient id="paint2_linear_0_5330" x1="12.6125" y1="9.75043" x2="17.9438" y2="9.09203" gradientUnits="userSpaceOnUse">
<stop stop-color="#3E32D1"/>
<stop offset="1" stop-color="#4C91FF"/>
</linearGradient>
<linearGradient id="paint3_linear_0_5330" x1="6.75" y1="19.15" x2="17.7432" y2="18.2458" gradientUnits="userSpaceOnUse">
<stop stop-color="#3E32D1"/>
<stop offset="1" stop-color="#4C91FF"/>
</linearGradient>
</defs>
</svg>
