<svg width="24" height="24" viewBox="0 0 24 24" fill="none" xmlns="http://www.w3.org/2000/svg">
<path d="M9.00009 10.9908C9.26531 10.9908 9.51966 10.8855 9.7072 10.6979C9.89474 10.5104 10.0001 10.256 10.0001 9.99082C10.0001 9.72561 9.89474 9.47125 9.7072 9.28372C9.51966 9.09618 9.26531 8.99082 9.00009 8.99082C8.73488 8.99082 8.48052 9.09618 8.29299 9.28372C8.10545 9.47125 8.00009 9.72561 8.00009 9.99082C8.00009 10.256 8.10545 10.5104 8.29299 10.6979C8.48052 10.8855 8.73488 10.9908 9.00009 10.9908ZM14.0001 12.9888C14.0001 13.254 13.8947 13.5084 13.7072 13.6959C13.5197 13.8835 13.2653 13.9888 13.0001 13.9888C12.7349 13.9888 12.4805 13.8835 12.293 13.6959C12.1055 13.5084 12.0001 13.254 12.0001 12.9888C12.0001 12.7236 12.1055 12.4693 12.293 12.2817C12.4805 12.0942 12.7349 11.9888 13.0001 11.9888C13.2653 11.9888 13.5197 12.0942 13.7072 12.2817C13.8947 12.4693 14.0001 12.7236 14.0001 12.9888ZM9.00009 16.9868C9.26531 16.9868 9.51966 16.8815 9.7072 16.6939C9.89474 16.5064 10.0001 16.252 10.0001 15.9868C10.0001 15.7216 9.89474 15.4673 9.7072 15.2797C9.51966 15.0922 9.26531 14.9868 9.00009 14.9868C8.73488 14.9868 8.48052 15.0922 8.29299 15.2797C8.10545 15.4673 8.00009 15.7216 8.00009 15.9868C8.00009 16.252 8.10545 16.5064 8.29299 16.6939C8.48052 16.8815 8.73488 16.9868 9.00009 16.9868ZM5.00009 4.66082C5.00009 3.16382 6.23009 1.85582 7.82009 2.01282C12.9975 2.52598 17.7941 4.96246 21.2621 8.84082C22.3321 10.0338 21.9991 11.8048 20.7831 12.6858C19.2011 13.8338 16.8431 15.5428 15.5001 16.5188C15.4981 16.9558 15.4981 17.2398 15.4991 17.6108V18.2388C15.4992 18.4946 15.4433 18.7474 15.3352 18.9792C15.2271 19.211 15.0695 19.4164 14.8735 19.5807C14.6775 19.7451 14.4478 19.8645 14.2007 19.9305C13.9536 19.9965 13.695 20.0076 13.4431 19.9628C13.2391 20.7888 12.5111 21.4898 11.4991 21.4898C10.7991 21.4898 10.2371 21.1548 9.89009 20.6748L8.56509 21.6318C7.07709 22.7058 4.99509 21.6428 4.99609 19.8058L5.00009 4.66082ZM7.67309 3.50582C7.06409 3.44582 6.49909 3.94882 6.49909 4.66082V5.18082C9.00939 5.28621 11.4678 5.92947 13.708 7.06709C15.9482 8.2047 17.918 9.81014 19.4841 11.7748L19.9031 11.4708C20.4811 11.0508 20.5551 10.2978 20.1451 9.84082C16.9272 6.24278 12.4767 3.98159 7.67309 3.50582ZM6.49609 19.8058C6.49598 19.9441 6.5341 20.0797 6.60623 20.1977C6.67837 20.3157 6.78172 20.4114 6.90486 20.4743C7.028 20.5372 7.16614 20.5649 7.30401 20.5542C7.44188 20.5435 7.57411 20.4949 7.68609 20.4138L9.81409 18.8798C9.92621 18.7992 10.0584 18.751 10.1962 18.7407C10.3339 18.7304 10.4718 18.7584 10.5947 18.8214C10.7175 18.8845 10.8206 18.9803 10.8925 19.0983C10.9644 19.2162 11.0023 19.3517 11.0021 19.4898C11.0021 19.7598 11.2111 19.9898 11.4991 19.9898C11.565 19.9905 11.6304 19.978 11.6915 19.9532C11.7526 19.9283 11.8081 19.8915 11.8548 19.845C11.9016 19.7984 11.9385 19.7431 11.9637 19.6821C11.9888 19.6211 12.0015 19.5558 12.0011 19.4898V18.2378C12.0011 18.0389 12.0801 17.8481 12.2208 17.7075C12.3614 17.5668 12.5522 17.4878 12.7511 17.4878C12.95 17.4878 13.1408 17.5668 13.2814 17.7075C13.4221 17.8481 13.5011 18.0389 13.5011 18.2378C13.5011 18.3778 13.6121 18.4878 13.7491 18.4878C13.8154 18.4878 13.879 18.4615 13.9259 18.4146C13.9728 18.3677 13.9991 18.3041 13.9991 18.2378V17.6158C13.9981 17.1458 13.9971 16.8078 14.0041 16.1268C14.005 16.0097 14.0334 15.8944 14.0868 15.7902C14.1403 15.6861 14.2175 15.5958 14.3121 15.5268C15.2141 14.8708 16.8081 13.7148 18.2681 12.6568C16.8423 10.8831 15.0554 9.43304 13.0261 8.40303C10.9967 7.37303 8.77148 6.78664 6.49809 6.68282L6.49609 19.8058Z" fill="url(#paint0_linear_0_5291)"/>
<defs>
<linearGradient id="paint0_linear_0_5291" x1="4.99609" y1="22.0614" x2="22.7837" y2="21.2509" gradientUnits="userSpaceOnUse">
<stop stop-color="#3E32D1"/>
<stop offset="1" stop-color="#4C91FF"/>
</linearGradient>
</defs>
</svg>
