<svg width="24" height="24" viewBox="0 0 24 24" fill="none" xmlns="http://www.w3.org/2000/svg">
<path fill-rule="evenodd" clip-rule="evenodd" d="M10.75 16.9493V21.4695L10.75 21.4774C10.7498 21.492 10.7493 21.5064 10.7483 21.5207C10.7283 21.82 10.535 22.0667 10.2716 22.1688C10.1871 22.2023 10.0954 22.2207 9.99999 22.2207H6.73999C6.32999 22.2207 5.98999 21.8807 5.98999 21.4707C5.98999 21.0607 6.32999 20.7207 6.73999 20.7207H9.25V17.6993H6.21C2.49927 17.6993 1.30596 16.5932 1.25194 13.0027C1.25065 12.9851 1.25 12.9672 1.25 12.9492C1.25 12.9374 1.25028 12.9257 1.25084 12.914C1.25028 12.8564 1.25 12.7982 1.25 12.7393V6.7393C1.25 2.9393 2.41 1.7793 6.21 1.7793H16.74C20.54 1.7793 21.7 2.9393 21.7 6.7393C21.7 7.1493 21.36 7.4893 20.95 7.4893C20.54 7.4893 20.2 7.1493 20.2 6.7393C20.2 3.7993 19.68 3.2793 16.74 3.2793H6.21C3.27 3.2793 2.75 3.7993 2.75 6.7393V12.1992H10C10.41 12.1992 10.75 12.5392 10.75 12.9492C10.75 13.3592 10.41 13.6992 10 13.6992H2.77593C2.91028 15.797 3.62394 16.1993 6.21 16.1993H9.87988C9.91905 16.1928 9.95918 16.1895 10 16.1895C10.41 16.1895 10.75 16.5295 10.75 16.9395V16.9493ZM19.04 22.2198H15.49C12.72 22.2198 11.78 21.2798 11.78 18.5098V12.7998C11.78 10.0298 12.72 9.08984 15.49 9.08984H19.04C21.81 9.08984 22.75 10.0298 22.75 12.7998V18.5098C22.75 21.2898 21.81 22.2198 19.04 22.2198ZM15.49 10.5898C13.53 10.5898 13.28 10.8398 13.28 12.7998V18.5098C13.28 20.4698 13.53 20.7198 15.49 20.7198H19.04C21 20.7198 21.25 20.4698 21.25 18.5098V12.7998C21.25 10.8398 21 10.5898 19.04 10.5898H15.49ZM16.59 18.6808C16.78 18.8708 17.04 18.9708 17.3 18.9708H17.3001C17.3701 18.9708 17.4301 18.9708 17.5 18.9508C17.56 18.9408 17.6201 18.9208 17.68 18.9008C17.74 18.8708 17.8001 18.8408 17.85 18.8008C17.91 18.7708 17.9601 18.7308 18.01 18.6808C18.1 18.5908 18.17 18.4808 18.22 18.3608C18.27 18.2308 18.3 18.1008 18.3 17.9708C18.3 17.7108 18.1901 17.4508 18.01 17.2708C17.9601 17.2208 17.91 17.1808 17.85 17.1408C17.8001 17.1108 17.7401 17.0808 17.6801 17.0508L17.68 17.0508L17.5 16.9908C17.17 16.9308 16.82 17.0408 16.59 17.2708C16.41 17.4508 16.3 17.7108 16.3 17.9708C16.3 18.1008 16.33 18.2308 16.38 18.3608C16.43 18.4808 16.5 18.5908 16.59 18.6808Z" fill="url(#paint0_linear_0_5280)"/>
<defs>
<linearGradient id="paint0_linear_0_5280" x1="1.25" y1="22.2207" x2="23.8392" y2="20.9365" gradientUnits="userSpaceOnUse">
<stop stop-color="#3E32D1"/>
<stop offset="1" stop-color="#4C91FF"/>
</linearGradient>
</defs>
</svg>
