<svg width="24" height="24" viewBox="0 0 24 24" fill="none" xmlns="http://www.w3.org/2000/svg">
<path fill-rule="evenodd" clip-rule="evenodd" d="M5.64002 12.75C4.96594 12.75 4.32715 12.5992 3.76001 12.3139V15.7107C3.76001 19.6118 5.07914 21.1111 8.75 21.2413V19.5C8.75 17.4 9.9 16.25 12 16.25C14.1 16.25 15.25 17.4 15.25 19.5V21.2409C18.9133 21.1084 20.23 19.6082 20.23 15.7107V12.2935C19.653 12.592 19 12.75 18.31 12.75C17.0563 12.75 15.8865 12.1245 15.1257 11.1703C15.0387 11.2949 14.9434 11.415 14.84 11.53C14.1 12.32 13.1 12.75 12 12.75C10.9 12.75 9.9 12.32 9.19 11.53C9.07168 11.3983 8.96392 11.26 8.86699 11.1158C8.10766 12.1006 6.9174 12.75 5.64002 12.75ZM1.59002 8.28C1.48786 9.28463 1.73362 10.2458 2.28411 11.0338C2.26839 11.0937 2.26001 11.1563 2.26001 11.2207V15.7107C2.26001 20.6407 4.36001 22.7507 9.30001 22.7507H14.7C19.63 22.7507 21.74 20.6407 21.73 15.7107V11.2207C21.73 11.1416 21.7174 11.0651 21.694 10.9931C22.2247 10.2128 22.4604 9.2674 22.36 8.28L22.08 5.5C21.67 2.48 20.3 1.25 17.36 1.25H14.35H14.31H9.68L9.65985 1.25027L9.64002 1.25H6.59002C3.65002 1.25 2.28002 2.48 1.86002 5.53L1.59002 8.28ZM6.59002 2.75C4.40002 2.75 3.67002 3.41 3.35002 5.7L3.08002 8.43C3.00002 9.19 3.23002 9.9 3.71002 10.43C4.19002 10.96 4.87002 11.25 5.64002 11.25C6.90002 11.25 8.07002 10.19 8.19002 8.94L8.81002 2.75H6.59002ZM14.262 9.10879C14.2418 9.63917 14.0453 10.1336 13.7 10.52C12.85 11.46 11.15 11.46 10.3 10.52C9.88 10.06 9.68 9.43 9.75 8.76L10.35 2.75H13.6269L14.26 9.09L14.262 9.10879ZM15.7891 9.13657C16.013 10.2991 17.1166 11.25 18.31 11.25C19.07 11.25 19.75 10.96 20.24 10.43C20.72 9.9 20.94 9.19 20.87 8.43L20.59 5.68C20.28 3.42 19.55 2.75 17.36 2.75H15.1822L15.77 8.61C15.7878 8.78759 15.7941 8.96335 15.7891 9.13657ZM13.75 19.5V21.25H10.25V19.5C10.25 18.24 10.74 17.75 12 17.75C13.26 17.75 13.75 18.24 13.75 19.5Z" fill="url(#paint0_linear_0_5214)"/>
<defs>
<linearGradient id="paint0_linear_0_5214" x1="1.56738" y1="22.7507" x2="23.4479" y2="21.6057" gradientUnits="userSpaceOnUse">
<stop stop-color="#3E32D1"/>
<stop offset="1" stop-color="#4C91FF"/>
</linearGradient>
</defs>
</svg>
