<svg width="24" height="24" viewBox="0 0 24 24" fill="none" xmlns="http://www.w3.org/2000/svg">
<path fill-rule="evenodd" clip-rule="evenodd" d="M12.0098 16.9993C11.1598 16.9993 10.2998 16.7793 9.62982 16.3493L6.37749 14.2261L6.36994 17.7701C6.36994 18.7101 7.14994 19.7901 8.03994 20.0901L11.2299 21.1501C11.6299 21.2801 12.3699 21.2801 12.7699 21.1501L15.9599 20.0901C16.8499 19.7901 17.6299 18.7101 17.6299 17.7801V14.23L14.3998 16.3493C13.7298 16.7893 12.8698 16.9993 12.0098 16.9993ZM3.60982 12.4193L4.87958 13.2482L4.86994 17.7701C4.85994 19.3601 6.04994 21.0101 7.55994 21.5101L10.7499 22.5701C11.1099 22.6901 11.5599 22.7501 11.9999 22.7501C12.4399 22.7501 12.8899 22.6901 13.2499 22.5801L16.4399 21.5201C17.9499 21.0101 19.1299 19.3701 19.1299 17.7801V13.2459L20.3898 12.4193C20.4794 12.3604 20.5662 12.2982 20.6499 12.233V15C20.6499 15.41 20.9899 15.75 21.3999 15.75C21.8099 15.75 22.1499 15.41 22.1499 15V9.52542C22.1631 9.39465 22.1698 9.26248 22.1698 9.1293C22.1698 7.7993 21.4998 6.5693 20.3898 5.8393L14.3998 1.9093C13.0698 1.0293 10.9798 1.0293 9.63982 1.8993L3.60982 5.8193C2.48982 6.5493 1.81982 7.7793 1.81982 9.1193C1.81982 10.4593 2.48982 11.6893 3.60982 12.4193ZM20.6592 8.88356C20.5914 8.14169 20.2036 7.49575 19.5698 7.0793L13.5798 3.1493C13.1598 2.8893 12.5898 2.7493 12.0098 2.7493C11.4398 2.7493 10.8698 2.8793 10.4598 3.1593L4.43982 7.0793C3.73982 7.5393 3.32982 8.2793 3.32982 9.1193C3.32982 9.9593 3.72982 10.6993 4.43982 11.1593L10.4598 15.0893C11.2898 15.6293 12.7498 15.6293 13.5798 15.0893L19.5698 11.1593C20.1791 10.7589 20.5611 10.1463 20.6499 9.44034V9C20.6499 8.96045 20.6531 8.92156 20.6592 8.88356Z" fill="url(#paint0_linear_0_5168)"/>
<defs>
<linearGradient id="paint0_linear_0_5168" x1="1.81982" y1="22.7501" x2="23.2138" y2="21.6556" gradientUnits="userSpaceOnUse">
<stop stop-color="#3E32D1"/>
<stop offset="1" stop-color="#4C91FF"/>
</linearGradient>
</defs>
</svg>
