<svg width="24" height="24" viewBox="0 0 24 24" fill="none" xmlns="http://www.w3.org/2000/svg">
<path d="M12 22.75C6.07 22.75 1.25 17.93 1.25 12C1.25 6.07 6.07 1.25 12 1.25C17.93 1.25 22.75 6.07 22.75 12C22.75 17.93 17.93 22.75 12 22.75ZM12 2.75C6.9 2.75 2.75 6.9 2.75 12C2.75 17.1 6.9 21.25 12 21.25C17.1 21.25 21.25 17.1 21.25 12C21.25 6.9 17.1 2.75 12 2.75Z" fill="#888888"/>
<path d="M15.53 14.0099C15.34 14.0099 15.15 13.9399 15 13.7899L12 10.7899L9.00003 13.7899C8.71003 14.0799 8.23003 14.0799 7.94003 13.7899C7.65003 13.4999 7.65003 13.0199 7.94003 12.7299L11.47 9.19992C11.76 8.90992 12.24 8.90992 12.53 9.19992L16.06 12.7299C16.35 13.0199 16.35 13.4999 16.06 13.7899C15.91 13.9399 15.72 14.0099 15.53 14.0099Z" fill="#888888"/>
</svg>
