<svg width="32" height="32" viewBox="0 0 32 32" fill="none" xmlns="http://www.w3.org/2000/svg">
<path d="M15.9999 30.3331C15.1999 30.3331 14.4133 30.1464 13.7733 29.7864L7.4666 26.1464C4.85326 24.3864 4.67993 24.0664 4.67993 21.3064V14.6931C4.67993 11.9331 4.85326 11.6131 7.41326 9.89309L13.7866 6.21309C15.0533 5.47975 16.9599 5.47975 18.2266 6.21309L24.5333 9.85309C27.1466 11.6131 27.3199 11.9331 27.3199 14.6931V21.3064C27.3199 24.0664 27.1466 24.3864 24.5866 26.1064L18.2133 29.7864C17.5866 30.1598 16.7866 30.3331 15.9999 30.3331ZM15.9999 7.66642C15.5466 7.66642 15.0933 7.75975 14.7733 7.94642L8.4666 11.5864C6.67993 12.7998 6.67993 12.7998 6.67993 14.6931V21.3064C6.67993 23.1998 6.67993 23.1998 8.53327 24.4531L14.7866 28.0531C15.4266 28.4264 16.5866 28.4264 17.2266 28.0531L23.5333 24.4131C25.3199 23.1998 25.3199 23.1998 25.3199 21.3064V14.6931C25.3199 12.7998 25.3199 12.7998 23.4666 11.5464L17.2133 7.94642C16.9066 7.75975 16.4533 7.66642 15.9999 7.66642Z" fill="url(#paint0_linear_0_4472)"/>
<path d="M23.3334 11.1737C22.7867 11.1737 22.3334 10.7203 22.3334 10.1737V6.66699C22.3334 4.56033 21.4401 3.66699 19.3334 3.66699H12.6667C10.5601 3.66699 9.66675 4.56033 9.66675 6.66699V10.0803C9.66675 10.627 9.21341 11.0803 8.66675 11.0803C8.12008 11.0803 7.66675 10.6403 7.66675 10.0803V6.66699C7.66675 3.44033 9.44008 1.66699 12.6667 1.66699H19.3334C22.5601 1.66699 24.3334 3.44033 24.3334 6.66699V10.1737C24.3334 10.7203 23.8801 11.1737 23.3334 11.1737Z" fill="url(#paint1_linear_0_4472)"/>
<path d="M18.1732 23.5068C17.8932 23.5068 17.5999 23.4535 17.3066 23.3335L15.9999 22.8268L14.6932 23.3468C13.9866 23.6268 13.2666 23.5602 12.7332 23.1735C12.1999 22.7868 11.9199 22.1202 11.9599 21.3602L12.0399 19.9602L11.1466 18.8802C10.6666 18.2802 10.5066 17.5868 10.7199 16.9468C10.9199 16.3202 11.4666 15.8402 12.1999 15.6535L13.5599 15.3068L14.3199 14.1202C15.1332 12.8402 16.8799 12.8402 17.6932 14.1202L18.4532 15.3068L19.8132 15.6535C20.5466 15.8402 21.0932 16.3202 21.2932 16.9468C21.4932 17.5735 21.3332 18.2802 20.8532 18.8668L19.9599 19.9468L20.0399 21.3468C20.0799 22.1068 19.7999 22.7602 19.2666 23.1602C18.9466 23.3868 18.5732 23.5068 18.1732 23.5068ZM12.6932 17.6002L13.5866 18.6802C13.8932 19.0402 14.0666 19.6135 14.0399 20.0802L13.9599 21.4802L15.2666 20.9602C15.7066 20.7868 16.2932 20.7868 16.7332 20.9602L18.0399 21.4802L17.9599 20.0802C17.9332 19.6135 18.1066 19.0535 18.4132 18.6802L19.3066 17.6002L17.9466 17.2535C17.4932 17.1335 17.0132 16.7868 16.7599 16.4002L16.0132 15.2268L15.2532 16.4002C14.9999 16.8002 14.5199 17.1468 14.0666 17.2668L12.6932 17.6002Z" fill="url(#paint2_linear_0_4472)"/>
<defs>
<linearGradient id="paint0_linear_0_4472" x1="4.67993" y1="30.3331" x2="28.4851" y2="29.1522" gradientUnits="userSpaceOnUse">
<stop stop-color="#3E32D1"/>
<stop offset="1" stop-color="#4C91FF"/>
</linearGradient>
<linearGradient id="paint1_linear_0_4472" x1="7.66675" y1="11.1737" x2="25.0779" y2="9.52372" gradientUnits="userSpaceOnUse">
<stop stop-color="#3E32D1"/>
<stop offset="1" stop-color="#4C91FF"/>
</linearGradient>
<linearGradient id="paint2_linear_0_4472" x1="10.6272" y1="23.5182" x2="21.923" y2="22.8845" gradientUnits="userSpaceOnUse">
<stop stop-color="#3E32D1"/>
<stop offset="1" stop-color="#4C91FF"/>
</linearGradient>
</defs>
</svg>
