<svg width="18" height="18" viewBox="0 0 18 18" fill="none" xmlns="http://www.w3.org/2000/svg">
<path d="M9 14.2129C7.035 14.2129 5.4375 12.6154 5.4375 10.6504C5.4375 8.68539 7.035 7.08789 9 7.08789C10.965 7.08789 12.5625 8.68539 12.5625 10.6504C12.5625 12.6154 10.965 14.2129 9 14.2129ZM9 8.21289C7.6575 8.21289 6.5625 9.30789 6.5625 10.6504C6.5625 11.9929 7.6575 13.0879 9 13.0879C10.3425 13.0879 11.4375 11.9929 11.4375 10.6504C11.4375 9.30789 10.3425 8.21289 9 8.21289Z" fill="#888888"/>
<path d="M8.24991 11.9622C8.06241 11.9622 7.87491 11.8647 7.76991 11.6922C7.61241 11.4222 7.69491 11.0772 7.96491 10.9197L8.53491 10.5747C8.59491 10.5447 8.62491 10.4772 8.62491 10.4172V9.71973C8.62491 9.41223 8.87991 9.15723 9.18741 9.15723C9.49491 9.15723 9.74991 9.40473 9.74991 9.71223V10.4097C9.74991 10.8672 9.50241 11.3022 9.11241 11.5347L8.54241 11.8797C8.45241 11.9397 8.34741 11.9622 8.24991 11.9622Z" fill="#888888"/>
<path d="M11.9999 17.0628H5.99993C2.53493 17.0628 1.88993 15.4503 1.72493 13.8828L1.16243 7.87531C1.07993 7.08781 1.05743 5.92531 1.83743 5.05531C2.51243 4.30531 3.62993 3.94531 5.24993 3.94531H12.7499C14.3774 3.94531 15.4949 4.31281 16.1624 5.05531C16.9424 5.92531 16.9199 7.08781 16.8374 7.88281L16.2749 13.8753C16.1099 15.4503 15.4649 17.0628 11.9999 17.0628ZM5.24993 5.06281C3.98243 5.06281 3.11243 5.31031 2.66993 5.80531C2.30243 6.21031 2.18243 6.83281 2.27993 7.76281L2.84243 13.7703C2.96993 14.9553 3.29243 15.9378 5.99993 15.9378H11.9999C14.6999 15.9378 15.0299 14.9553 15.1574 13.7628L15.7199 7.77031C15.8174 6.83281 15.6974 6.21031 15.3299 5.80531C14.8874 5.31031 14.0174 5.06281 12.7499 5.06281H5.24993Z" fill="#888888"/>
<path d="M12 5.0625C11.6925 5.0625 11.4375 4.8075 11.4375 4.5V3.9C11.4375 2.565 11.4375 2.0625 9.6 2.0625H8.4C6.5625 2.0625 6.5625 2.565 6.5625 3.9V4.5C6.5625 4.8075 6.3075 5.0625 6 5.0625C5.6925 5.0625 5.4375 4.8075 5.4375 4.5V3.9C5.4375 2.58 5.4375 0.9375 8.4 0.9375H9.6C12.5625 0.9375 12.5625 2.58 12.5625 3.9V4.5C12.5625 4.8075 12.3075 5.0625 12 5.0625Z" fill="#888888"/>
<path d="M12.0076 10.7928C11.7526 10.7928 11.5276 10.6203 11.4601 10.3653C11.3851 10.0653 11.5651 9.75785 11.8651 9.68285C13.3276 9.31535 14.6851 8.67785 15.9001 7.79285C16.1476 7.61285 16.5001 7.66535 16.6876 7.92035C16.8676 8.16785 16.8151 8.52035 16.5601 8.70785C15.2251 9.67535 13.7401 10.3728 12.1351 10.7778C12.0976 10.7853 12.0526 10.7928 12.0076 10.7928Z" fill="#888888"/>
<path d="M6.00005 10.8153C5.95505 10.8153 5.91005 10.8078 5.86505 10.8003C4.35755 10.4328 2.94005 9.79535 1.64255 8.91035C1.38755 8.73785 1.32005 8.38535 1.49255 8.13035C1.66505 7.87535 2.01755 7.80785 2.27255 7.98035C3.45755 8.79035 4.74755 9.36785 6.12755 9.70535C6.42755 9.78035 6.61505 10.0803 6.54005 10.3878C6.48755 10.6428 6.25505 10.8153 6.00005 10.8153Z" fill="#888888"/>
</svg>
