<svg width="32" height="32" viewBox="0 0 32 32" fill="none" xmlns="http://www.w3.org/2000/svg">
<path fill-rule="evenodd" clip-rule="evenodd" d="M20.3333 7.01367V6.93366C20.3333 4.56033 20.3333 3.66699 17.0667 3.66699H14.9333C11.6667 3.66699 11.6667 4.56033 11.6667 6.93366V7.01367H20.3333ZM9.66667 7.01367V6.93366C9.66667 4.58699 9.66667 1.66699 14.9333 1.66699H17.0667C22.3333 1.66699 22.3333 4.58699 22.3333 6.93366V7.01367H22.6666C25.56 7.01367 27.5466 7.667 28.7333 8.987C30.12 10.5337 30.08 12.6003 29.9333 14.0137L28.9333 24.667C28.64 27.467 27.4933 30.3337 21.3333 30.3337H10.6666C4.50664 30.3337 3.35998 27.467 3.06664 24.6803L2.06664 14.0003C1.91998 12.6003 1.87998 10.5337 3.26664 8.987C4.46664 7.65367 6.45331 7.01367 9.33331 7.01367H9.66667ZM9.33331 9.00034C7.07998 9.00034 5.53331 9.44034 4.74664 10.3203C4.09331 11.0403 3.87998 12.147 4.05331 13.8003L4.09289 14.2231C5.91719 15.4622 7.88089 16.3923 9.96674 17.0046C10.7842 14.4522 13.1791 12.6003 16 12.6003C18.804 12.6003 21.1871 14.43 22.0184 16.9587C24.1312 16.3238 26.1109 15.3637 27.9197 14.1012L27.9466 13.8137C28.12 12.147 27.9066 11.0403 27.2533 10.3203C26.4666 9.44034 24.92 9.00034 22.6666 9.00034H9.33331ZM9.66702 19.0011C7.79891 18.4763 6.01289 17.7147 4.32766 16.7303L5.05331 24.4803C5.27998 26.587 5.85331 28.3337 10.6666 28.3337H21.3333C26.1333 28.3337 26.72 26.587 26.9466 24.467L27.6815 16.6379C26.0074 17.634 24.2193 18.4104 22.3333 18.9549C22.3218 22.4385 19.4862 25.2669 16 25.2669C12.5292 25.2669 9.70334 22.4635 9.66702 19.0011ZM11.6667 18.9336C11.6667 16.5469 13.6133 14.6003 16 14.6003C18.3867 14.6003 20.3333 16.5469 20.3333 18.9336C20.3333 21.3203 18.3867 23.2669 16 23.2669C13.6133 23.2669 11.6667 21.3203 11.6667 18.9336ZM13.2132 19.7603L14.0798 20.627C14.3998 20.947 14.8265 21.107 15.2532 21.107C15.6665 21.107 16.0665 20.9603 16.3998 20.667L18.7732 18.4803C19.1732 18.107 19.1998 17.467 18.8265 17.067C18.4532 16.667 17.8132 16.6403 17.4132 17.0136L15.2665 18.987L14.6265 18.347C14.2398 17.9603 13.5998 17.9603 13.2132 18.347C12.8265 18.7336 12.8265 19.3736 13.2132 19.7603Z" fill="url(#paint0_linear_0_4463)"/>
<defs>
<linearGradient id="paint0_linear_0_4463" x1="2.37897" y1="30.3337" x2="35.2984" y2="21.5788" gradientUnits="userSpaceOnUse">
<stop stop-color="#1DAF59"/>
<stop offset="1" stop-color="#54E18E"/>
</linearGradient>
</defs>
</svg>
