<svg width="24" height="24" viewBox="0 0 24 24" fill="none" xmlns="http://www.w3.org/2000/svg">
<path d="M7.99951 5.75C7.58951 5.75 7.24951 5.41 7.24951 5V2C7.24951 1.59 7.58951 1.25 7.99951 1.25C8.40951 1.25 8.74951 1.59 8.74951 2V5C8.74951 5.41 8.40951 5.75 7.99951 5.75Z" fill="url(#paint0_linear_0_3870)"/>
<path d="M16.0005 5.75C15.5905 5.75 15.2505 5.41 15.2505 5V2C15.2505 1.59 15.5905 1.25 16.0005 1.25C16.4105 1.25 16.7505 1.59 16.7505 2V5C16.7505 5.41 16.4105 5.75 16.0005 5.75Z" fill="url(#paint1_linear_0_3870)"/>
<path d="M8.50049 14.4998C8.37049 14.4998 8.24049 14.4698 8.12049 14.4198C7.99049 14.3698 7.89049 14.2998 7.79049 14.2098C7.61049 14.0198 7.50049 13.7698 7.50049 13.4998C7.50049 13.3698 7.53049 13.2398 7.58049 13.1198C7.63049 12.9998 7.70049 12.8898 7.79049 12.7898C7.89049 12.6998 7.99049 12.6298 8.12049 12.5798C8.48049 12.4298 8.93049 12.5098 9.21049 12.7898C9.39049 12.9798 9.50049 13.2398 9.50049 13.4998C9.50049 13.5598 9.49049 13.6298 9.48049 13.6998C9.47049 13.7598 9.45049 13.8198 9.42049 13.8798C9.40049 13.9398 9.37049 13.9998 9.33049 14.0598C9.30049 14.1098 9.25049 14.1598 9.21049 14.2098C9.02049 14.3898 8.76049 14.4998 8.50049 14.4998Z" fill="url(#paint2_linear_0_3870)"/>
<path d="M12 14.4999C11.87 14.4999 11.74 14.4699 11.62 14.4199C11.49 14.3699 11.39 14.2999 11.29 14.2099C11.11 14.0199 11 13.7699 11 13.4999C11 13.3699 11.03 13.2399 11.08 13.1199C11.13 12.9999 11.2 12.8899 11.29 12.7899C11.39 12.6999 11.49 12.6299 11.62 12.5799C11.98 12.4199 12.43 12.5099 12.71 12.7899C12.89 12.9799 13 13.2399 13 13.4999C13 13.5599 12.99 13.6299 12.98 13.6999C12.97 13.7599 12.95 13.8199 12.92 13.8799C12.9 13.9399 12.87 13.9999 12.83 14.0599C12.8 14.1099 12.75 14.1599 12.71 14.2099C12.52 14.3899 12.26 14.4999 12 14.4999Z" fill="url(#paint3_linear_0_3870)"/>
<path d="M15.5 14.4999C15.37 14.4999 15.24 14.4699 15.12 14.4199C14.99 14.3699 14.89 14.2999 14.79 14.2099C14.75 14.1599 14.71 14.1099 14.67 14.0599C14.63 13.9999 14.6 13.9399 14.58 13.8799C14.55 13.8199 14.53 13.7599 14.52 13.6999C14.51 13.6299 14.5 13.5599 14.5 13.4999C14.5 13.2399 14.61 12.9799 14.79 12.7899C14.89 12.6999 14.99 12.6299 15.12 12.5799C15.49 12.4199 15.93 12.5099 16.21 12.7899C16.39 12.9799 16.5 13.2399 16.5 13.4999C16.5 13.5599 16.49 13.6299 16.48 13.6999C16.47 13.7599 16.45 13.8199 16.42 13.8799C16.4 13.9399 16.37 13.9999 16.33 14.0599C16.3 14.1099 16.25 14.1599 16.21 14.2099C16.02 14.3899 15.76 14.4999 15.5 14.4999Z" fill="url(#paint4_linear_0_3870)"/>
<path d="M8.50049 18.0002C8.37049 18.0002 8.24049 17.9702 8.12049 17.9202C8.00049 17.8702 7.89049 17.8002 7.79049 17.7102C7.61049 17.5202 7.50049 17.2602 7.50049 17.0002C7.50049 16.8702 7.53049 16.7402 7.58049 16.6202C7.63049 16.4902 7.70049 16.3802 7.79049 16.2902C8.16049 15.9202 8.84049 15.9202 9.21049 16.2902C9.39049 16.4802 9.50049 16.7402 9.50049 17.0002C9.50049 17.2602 9.39049 17.5202 9.21049 17.7102C9.02049 17.8902 8.76049 18.0002 8.50049 18.0002Z" fill="url(#paint5_linear_0_3870)"/>
<path d="M12 18.0002C11.74 18.0002 11.48 17.8902 11.29 17.7102C11.11 17.5202 11 17.2602 11 17.0002C11 16.8702 11.03 16.7402 11.08 16.6202C11.13 16.4902 11.2 16.3802 11.29 16.2902C11.66 15.9202 12.34 15.9202 12.71 16.2902C12.8 16.3802 12.87 16.4902 12.92 16.6202C12.97 16.7402 13 16.8702 13 17.0002C13 17.2602 12.89 17.5202 12.71 17.7102C12.52 17.8902 12.26 18.0002 12 18.0002Z" fill="url(#paint6_linear_0_3870)"/>
<path d="M15.5 18.0004C15.24 18.0004 14.98 17.8904 14.79 17.7104C14.7 17.6204 14.63 17.5104 14.58 17.3804C14.53 17.2604 14.5 17.1304 14.5 17.0004C14.5 16.8704 14.53 16.7404 14.58 16.6204C14.63 16.4904 14.7 16.3804 14.79 16.2904C15.02 16.0604 15.37 15.9504 15.69 16.0204C15.76 16.0304 15.82 16.0504 15.88 16.0804C15.94 16.1004 16 16.1304 16.06 16.1704C16.11 16.2004 16.16 16.2504 16.21 16.2904C16.39 16.4804 16.5 16.7404 16.5 17.0004C16.5 17.2604 16.39 17.5204 16.21 17.7104C16.02 17.8904 15.76 18.0004 15.5 18.0004Z" fill="url(#paint7_linear_0_3870)"/>
<path d="M20.4995 9.83984H3.49951C3.08951 9.83984 2.74951 9.49984 2.74951 9.08984C2.74951 8.67984 3.08951 8.33984 3.49951 8.33984H20.4995C20.9095 8.33984 21.2495 8.67984 21.2495 9.08984C21.2495 9.49984 20.9095 9.83984 20.4995 9.83984Z" fill="url(#paint8_linear_0_3870)"/>
<path d="M16 22.7495H8C4.35 22.7495 2.25 20.6495 2.25 16.9995V8.49951C2.25 4.84951 4.35 2.74951 8 2.74951H16C19.65 2.74951 21.75 4.84951 21.75 8.49951V16.9995C21.75 20.6495 19.65 22.7495 16 22.7495ZM8 4.24951C5.14 4.24951 3.75 5.63951 3.75 8.49951V16.9995C3.75 19.8595 5.14 21.2495 8 21.2495H16C18.86 21.2495 20.25 19.8595 20.25 16.9995V8.49951C20.25 5.63951 18.86 4.24951 16 4.24951H8Z" fill="url(#paint9_linear_0_3870)"/>
<defs>
<linearGradient id="paint0_linear_0_3870" x1="7.24951" y1="5.75" x2="8.83008" y2="5.72152" gradientUnits="userSpaceOnUse">
<stop stop-color="#3E32D1"/>
<stop offset="1" stop-color="#4C91FF"/>
</linearGradient>
<linearGradient id="paint1_linear_0_3870" x1="15.2505" y1="5.75" x2="16.8311" y2="5.72152" gradientUnits="userSpaceOnUse">
<stop stop-color="#3E32D1"/>
<stop offset="1" stop-color="#4C91FF"/>
</linearGradient>
<linearGradient id="paint2_linear_0_3870" x1="7.50049" y1="14.4998" x2="9.60242" y2="14.3859" gradientUnits="userSpaceOnUse">
<stop stop-color="#3E32D1"/>
<stop offset="1" stop-color="#4C91FF"/>
</linearGradient>
<linearGradient id="paint3_linear_0_3870" x1="11" y1="14.4999" x2="13.102" y2="14.3862" gradientUnits="userSpaceOnUse">
<stop stop-color="#3E32D1"/>
<stop offset="1" stop-color="#4C91FF"/>
</linearGradient>
<linearGradient id="paint4_linear_0_3870" x1="14.5" y1="14.4999" x2="16.602" y2="14.3862" gradientUnits="userSpaceOnUse">
<stop stop-color="#3E32D1"/>
<stop offset="1" stop-color="#4C91FF"/>
</linearGradient>
<linearGradient id="paint5_linear_0_3870" x1="7.50049" y1="18.0002" x2="9.60238" y2="17.8859" gradientUnits="userSpaceOnUse">
<stop stop-color="#3E32D1"/>
<stop offset="1" stop-color="#4C91FF"/>
</linearGradient>
<linearGradient id="paint6_linear_0_3870" x1="11" y1="18.0002" x2="13.1019" y2="17.8859" gradientUnits="userSpaceOnUse">
<stop stop-color="#3E32D1"/>
<stop offset="1" stop-color="#4C91FF"/>
</linearGradient>
<linearGradient id="paint7_linear_0_3870" x1="14.5" y1="18.0004" x2="16.602" y2="17.8868" gradientUnits="userSpaceOnUse">
<stop stop-color="#3E32D1"/>
<stop offset="1" stop-color="#4C91FF"/>
</linearGradient>
<linearGradient id="paint8_linear_0_3870" x1="2.74951" y1="9.83984" x2="16.2497" y2="0.839919" gradientUnits="userSpaceOnUse">
<stop stop-color="#3E32D1"/>
<stop offset="1" stop-color="#4C91FF"/>
</linearGradient>
<linearGradient id="paint9_linear_0_3870" x1="2.25" y1="22.7495" x2="22.7471" y2="21.6693" gradientUnits="userSpaceOnUse">
<stop stop-color="#3E32D1"/>
<stop offset="1" stop-color="#4C91FF"/>
</linearGradient>
</defs>
</svg>
