<svg width="14" height="14" viewBox="0 0 14 14" fill="none" xmlns="http://www.w3.org/2000/svg">
<path d="M7.09349 6.77768C7.07599 6.77768 7.06432 6.77768 7.04682 6.77768C7.01766 6.77185 6.97682 6.77185 6.94182 6.77768C5.25016 6.72518 3.97266 5.39518 3.97266 3.75602C3.97266 2.08768 5.33182 0.728516 7.00016 0.728516C8.66849 0.728516 10.0277 2.08768 10.0277 3.75602C10.0218 5.39518 8.73849 6.72518 7.11099 6.77768C7.10516 6.77768 7.09932 6.77768 7.09349 6.77768ZM7.00016 1.60352C5.81599 1.60352 4.84766 2.57185 4.84766 3.75602C4.84766 4.92268 5.75766 5.86185 6.91849 5.90268C6.94766 5.89685 7.02932 5.89685 7.10516 5.90268C8.24849 5.85018 9.14682 4.91102 9.15266 3.75602C9.15266 2.57185 8.18432 1.60352 7.00016 1.60352Z" fill="white"/>
<path d="M7.09918 13.1538C5.95585 13.1538 4.80668 12.8622 3.93752 12.2788C3.12668 11.7422 2.68335 11.0072 2.68335 10.208C2.68335 9.40884 3.12668 8.66801 3.93752 8.12551C5.68752 6.96467 8.52252 6.96467 10.2608 8.12551C11.0658 8.66217 11.515 9.39717 11.515 10.1963C11.515 10.9955 11.0717 11.7363 10.2608 12.2788C9.38585 12.8622 8.24252 13.1538 7.09918 13.1538ZM4.42168 8.86051C3.86168 9.23384 3.55835 9.71217 3.55835 10.2138C3.55835 10.7097 3.86752 11.188 4.42168 11.5555C5.87418 12.5297 8.32418 12.5297 9.77668 11.5555C10.3367 11.1822 10.64 10.7038 10.64 10.2022C10.64 9.70634 10.3308 9.22801 9.77668 8.86051C8.32418 7.89217 5.87418 7.89217 4.42168 8.86051Z" fill="white"/>
</svg>
