<svg width="48" height="48" viewBox="0 0 48 48" fill="none" xmlns="http://www.w3.org/2000/svg">
<path d="M24 0C42.1989 0 48 5.80105 48 24C48 42.1989 42.1989 48 24 48C5.80105 48 0 42.1989 0 24C0 5.80105 5.80105 0 24 0Z" fill="url(#paint0_linear_40_4622)"/>
<path d="M27 24.9502H20C19.59 24.9502 19.25 24.6102 19.25 24.2002C19.25 23.7902 19.59 23.4502 20 23.4502H27C27.41 23.4502 27.75 23.7902 27.75 24.2002C27.75 24.6102 27.41 24.9502 27 24.9502Z" fill="white"/>
<path d="M24.38 28.9502H20C19.59 28.9502 19.25 28.6102 19.25 28.2002C19.25 27.7902 19.59 27.4502 20 27.4502H24.38C24.79 27.4502 25.13 27.7902 25.13 28.2002C25.13 28.6102 24.79 28.9502 24.38 28.9502Z" fill="white"/>
<path d="M26 18.75H22C21.04 18.75 19.25 18.75 19.25 16C19.25 13.25 21.04 13.25 22 13.25H26C26.96 13.25 28.75 13.25 28.75 16C28.75 16.96 28.75 18.75 26 18.75ZM22 14.75C21.01 14.75 20.75 14.75 20.75 16C20.75 17.25 21.01 17.25 22 17.25H26C27.25 17.25 27.25 16.99 27.25 16C27.25 14.75 26.99 14.75 26 14.75H22Z" fill="white"/>
<path d="M27 34.7504H21C15.38 34.7504 14.25 32.1704 14.25 28.0004V22.0004C14.25 17.4404 15.9 15.4904 19.96 15.2804C20.36 15.2604 20.73 15.5704 20.75 15.9904C20.77 16.4104 20.45 16.7504 20.04 16.7704C17.2 16.9304 15.75 17.7804 15.75 22.0004V28.0004C15.75 31.7004 16.48 33.2504 21 33.2504H27C31.52 33.2504 32.25 31.7004 32.25 28.0004V22.0004C32.25 17.7804 30.8 16.9304 27.96 16.7704C27.55 16.7504 27.23 16.3904 27.25 15.9804C27.27 15.5704 27.63 15.2504 28.04 15.2704C32.1 15.4904 33.75 17.4404 33.75 21.9904V27.9904C33.75 32.1704 32.62 34.7504 27 34.7504Z" fill="white"/>
<defs>
<linearGradient id="paint0_linear_40_4622" x1="-1.78814e-07" y1="48" x2="50.4472" y2="45.2732" gradientUnits="userSpaceOnUse">
<stop stop-color="#3E32D1"/>
<stop offset="1" stop-color="#4C91FF"/>
</linearGradient>
</defs>
</svg>
