<svg width="24" height="24" viewBox="0 0 24 24" fill="none" xmlns="http://www.w3.org/2000/svg">
<path fill-rule="evenodd" clip-rule="evenodd" d="M11.9905 13.6913L17.9485 19.6493C18.4138 20.1146 19.1855 20.1146 19.6508 19.6493C20.1161 19.184 20.1161 18.4123 19.6508 17.947L13.6928 11.989L19.651 6.03078C20.1163 5.56548 20.1163 4.79377 19.651 4.32847C19.1857 3.86317 18.414 3.86317 17.9487 4.32847L11.9905 10.2867L6.03225 4.32847C5.56695 3.86317 4.79523 3.86317 4.32993 4.32847C3.86463 4.79377 3.86463 5.56548 4.32993 6.03078L10.2882 11.989L4.33017 17.947C3.86487 18.4123 3.86487 19.184 4.33017 19.6493C4.79547 20.1146 5.56719 20.1146 6.03249 19.6493L11.9905 13.6913Z" fill="white"/>
</svg>
