<svg width="18" height="18" viewBox="0 0 18 18" fill="none" xmlns="http://www.w3.org/2000/svg">
<path d="M4.21486 14.5703C3.76301 14.5703 3.34079 14.4147 3.03708 14.1258C2.6519 13.7629 2.46671 13.2147 2.53338 12.6221L2.80745 10.2221C2.8593 9.77028 3.13338 9.17028 3.4519 8.84435L9.53338 2.40732C11.0519 0.79991 12.6371 0.755465 14.2445 2.27398C15.8519 3.7925 15.8963 5.37769 14.3778 6.9851L8.29634 13.4221C7.98523 13.7555 7.40745 14.0666 6.9556 14.1407L4.57041 14.5481C4.44449 14.5555 4.33338 14.5703 4.21486 14.5703ZM11.9112 2.26658C11.3408 2.26658 10.8445 2.62213 10.3408 3.15547L4.2593 9.59991C4.11116 9.75547 3.94079 10.1258 3.91116 10.3407L3.63708 12.7407C3.60745 12.9851 3.66671 13.1851 3.80004 13.311C3.93338 13.4369 4.13338 13.4814 4.37782 13.4444L6.76301 13.0369C6.97782 12.9999 7.33338 12.8073 7.48153 12.6518L13.563 6.21472C14.4815 5.23695 14.8149 4.33324 13.4741 3.07398C12.8815 2.50361 12.3704 2.26658 11.9112 2.26658Z" fill="#001029"/>
<path d="M12.9558 8.22212C12.941 8.22212 12.9188 8.22212 12.904 8.22212C10.5929 7.99249 8.73362 6.23693 8.37806 3.94064C8.33362 3.63693 8.54103 3.35545 8.84473 3.3036C9.14843 3.25916 9.42992 3.46656 9.48177 3.77027C9.76325 5.56286 11.2151 6.94064 13.0225 7.11842C13.3262 7.14805 13.5484 7.42212 13.5188 7.72582C13.4818 8.0073 13.2373 8.22212 12.9558 8.22212Z" fill="#001029"/>
<path d="M15.6667 16.9629H2.33339C2.02968 16.9629 1.77783 16.7111 1.77783 16.4074C1.77783 16.1037 2.02968 15.8518 2.33339 15.8518H15.6667C15.9704 15.8518 16.2223 16.1037 16.2223 16.4074C16.2223 16.7111 15.9704 16.9629 15.6667 16.9629Z" fill="#001029"/>
</svg>
