<svg width="18" height="18" viewBox="0 0 18 18" fill="none" xmlns="http://www.w3.org/2000/svg">
<path d="M8.9994 12.2073C7.22903 12.2073 5.79199 10.7703 5.79199 8.99989C5.79199 7.22952 7.22903 5.79248 8.9994 5.79248C10.7698 5.79248 12.2068 7.22952 12.2068 8.99989C12.2068 10.7703 10.7698 12.2073 8.9994 12.2073ZM8.9994 6.90359C7.84384 6.90359 6.9031 7.84433 6.9031 8.99989C6.9031 10.1554 7.84384 11.0962 8.9994 11.0962C10.155 11.0962 11.0957 10.1554 11.0957 8.99989C11.0957 7.84433 10.155 6.90359 8.9994 6.90359Z" fill="#001029"/>
<path d="M8.9991 15.6816C6.21391 15.6816 3.58428 14.0519 1.77688 11.2223C0.991692 10.0001 0.991692 8.00749 1.77688 6.77786C3.59169 3.94823 6.22132 2.3186 8.9991 2.3186C11.7769 2.3186 14.4065 3.94823 16.2139 6.77786C16.9991 8.00008 16.9991 9.99268 16.2139 11.2223C14.4065 14.0519 11.7769 15.6816 8.9991 15.6816ZM8.9991 3.42971C6.60651 3.42971 4.31762 4.86675 2.71762 7.37786C2.16206 8.24453 2.16206 9.75564 2.71762 10.6223C4.31762 13.1334 6.60651 14.5705 8.9991 14.5705C11.3917 14.5705 13.6806 13.1334 15.2806 10.6223C15.8361 9.75564 15.8361 8.24453 15.2806 7.37786C13.6806 4.86675 11.3917 3.42971 8.9991 3.42971Z" fill="#001029"/>
</svg>
