<svg width="14" height="14" viewBox="0 0 14 14" fill="none" xmlns="http://www.w3.org/2000/svg">
<path d="M6.45744 10.599C6.35828 10.599 6.26494 10.5814 6.16578 10.5465C5.84494 10.424 5.63494 10.1265 5.63494 9.78228V7.85728H5.06328C4.73661 7.85728 4.45078 7.67062 4.31661 7.37895C4.18244 7.08145 4.23494 6.74895 4.45078 6.50395L6.93578 3.68062C7.16328 3.42395 7.51328 3.33645 7.83411 3.45895C8.15494 3.58145 8.36494 3.87895 8.36494 4.22312V6.14812H8.94244C9.26911 6.14812 9.55494 6.33478 9.68911 6.62645C9.82328 6.92395 9.77078 7.25645 9.55494 7.50145L7.06994 10.3248C6.90661 10.4998 6.68494 10.599 6.45744 10.599ZM5.19161 6.98228H6.07244C6.31161 6.98228 6.50994 7.18062 6.50994 7.41978V9.62478L8.80828 7.01728H7.92744C7.68828 7.01728 7.48994 6.81895 7.48994 6.57978V4.37478L5.19161 6.98228Z" fill="white"/>
<path d="M6.9825 13.2712C3.52917 13.2712 0.71167 10.4595 0.71167 7.00033C0.71167 3.54116 3.52917 0.729492 6.9825 0.729492C10.4358 0.729492 13.2533 3.54116 13.2533 7.00033C13.2533 10.4595 10.4417 13.2712 6.9825 13.2712ZM6.9825 1.60449C4.0075 1.60449 1.58667 4.02533 1.58667 7.00033C1.58667 9.97533 4.0075 12.3962 6.9825 12.3962C9.9575 12.3962 12.3783 9.97533 12.3783 7.00033C12.3783 4.02533 9.9575 1.60449 6.9825 1.60449Z" fill="white"/>
</svg>
