<svg width="14" height="14" viewBox="0 0 14 14" fill="none" xmlns="http://www.w3.org/2000/svg">
<path fill-rule="evenodd" clip-rule="evenodd" d="M7.00008 13.2709C3.54092 13.2709 0.729248 10.4592 0.729248 7.00002C0.729248 3.54085 3.54092 0.729187 7.00008 0.729187C10.4592 0.729187 13.2709 3.54085 13.2709 7.00002C13.2709 10.4592 10.4592 13.2709 7.00008 13.2709ZM7.00008 1.60419C6.54762 1.60419 6.10798 1.66018 5.68772 1.76561C5.68614 1.80739 5.67843 1.84924 5.66424 1.89002C5.42693 2.60323 5.24097 3.332 5.10636 4.06967C6.3645 3.93032 7.63697 3.93042 8.89439 4.06996C8.75974 3.3305 8.57359 2.59967 8.33593 1.88418C8.32292 1.84514 8.31575 1.8054 8.31394 1.76598C7.89323 1.66032 7.45308 1.60419 7.00008 1.60419ZM9.03218 4.96841C7.68439 4.79971 6.31621 4.79945 4.96836 4.96764C4.79966 6.31522 4.79954 7.68312 4.968 9.03162C6.31578 9.20033 7.68397 9.20059 9.03181 9.0324C9.20052 7.68482 9.20064 6.31692 9.03218 4.96841ZM4.19764 4.19505C4.30933 3.51803 4.46181 2.84732 4.65508 2.18752C4.62874 2.18688 4.60303 2.18397 4.57815 2.17899C3.51391 2.71587 2.6505 3.59494 2.13347 4.67063C2.81148 4.46879 3.50123 4.31026 4.19764 4.19505ZM1.76606 5.68608C1.80522 5.68413 1.84491 5.67698 1.88426 5.66419C2.60002 5.42603 3.33172 5.23959 4.07246 5.10487C3.93349 6.36311 3.93345 7.63584 4.07234 8.89409C3.33363 8.75945 2.60392 8.57338 1.89008 8.33585C1.8493 8.32167 1.80745 8.31395 1.76567 8.31237C1.66024 7.89212 1.60425 7.45248 1.60425 7.00002C1.60425 6.54699 1.66038 6.10682 1.76606 5.68608ZM9.93112 5.10655C10.6687 5.24114 11.3973 5.42701 12.1101 5.66419C12.1515 5.67973 12.193 5.68606 12.2344 5.68729C12.3399 6.10766 12.3959 6.54743 12.3959 7.00002C12.3959 7.45257 12.3399 7.8923 12.2344 8.31264C12.1946 8.31469 12.1548 8.32234 12.1159 8.33585C11.4007 8.57383 10.6696 8.76016 9.92946 8.89486C10.0695 7.63739 10.07 6.36483 9.93112 5.10655ZM11.8675 4.67237C11.1906 4.47026 10.5016 4.31148 9.80578 4.19602C9.6909 3.50049 9.53281 2.8116 9.33152 2.1344C10.4379 2.66673 11.336 3.56555 11.8675 4.67237ZM2.18758 9.34502C2.18693 9.3711 2.18395 9.39666 2.17883 9.42151C2.70021 10.4553 3.54445 11.2996 4.57815 11.8211C4.60304 11.8161 4.62874 11.8132 4.65508 11.8125C4.4618 11.1527 4.30931 10.4819 4.19761 9.80481C3.51982 9.69295 2.84849 9.53984 2.18758 9.34502ZM7.00008 10.0334C6.36671 10.0334 5.73422 9.99889 5.1057 9.92964C5.24036 10.6692 5.42654 11.4002 5.66424 12.1159C5.67776 12.1547 5.6854 12.1945 5.68746 12.2344C6.10779 12.3398 6.54753 12.3959 7.00008 12.3959C7.45223 12.3959 7.89158 12.3399 8.31158 12.2347C8.31326 12.1931 8.32115 12.1512 8.33593 12.11C8.57332 11.3966 8.75931 10.6676 8.89393 9.92973C8.26536 9.99893 7.63316 10.0334 7.00008 10.0334ZM9.32572 11.8684C9.52831 11.1909 9.68749 10.5013 9.80327 9.80488C10.482 9.69301 11.1549 9.53988 11.8184 9.34502C11.819 9.3684 11.8213 9.39129 11.8253 9.41354C11.2882 10.4829 10.406 11.3503 9.32572 11.8684Z" fill="url(#paint0_linear_0_2629)"/>
<defs>
<linearGradient id="paint0_linear_0_2629" x1="0.729248" y1="13.2709" x2="13.9103" y2="12.5584" gradientUnits="userSpaceOnUse">
<stop stop-color="#3E32D1"/>
<stop offset="1" stop-color="#4C91FF"/>
</linearGradient>
</defs>
</svg>
