<svg width="14" height="14" viewBox="0 0 14 14" fill="none" xmlns="http://www.w3.org/2000/svg">
<path d="M8.89006 13.2702H5.11006C4.00756 13.2702 3.20256 12.8094 2.89339 12.016C2.57256 11.1877 2.87006 10.161 3.64006 9.46685L6.34673 6.99935L3.64006 4.53185C2.87006 3.83768 2.57256 2.81102 2.89339 1.98268C3.20256 1.18352 4.00756 0.728516 5.11006 0.728516H8.89006C9.99256 0.728516 10.7976 1.18935 11.1067 1.98268C11.4276 2.81102 11.1301 3.83768 10.3601 4.53185L7.65339 6.99935L10.3659 9.46685C11.1301 10.161 11.4334 11.1877 11.1126 12.016C10.7976 12.8094 9.99256 13.2702 8.89006 13.2702ZM7.00006 7.58852L4.22923 10.1085C3.73923 10.5577 3.52339 11.211 3.71006 11.6952C3.88506 12.1443 4.38089 12.3952 5.11006 12.3952H8.89006C9.61923 12.3952 10.1151 12.1502 10.2901 11.6952C10.4767 11.211 10.2667 10.5577 9.77089 10.1085L7.00006 7.58852ZM5.11006 1.60352C4.38089 1.60352 3.88506 1.84852 3.71006 2.30352C3.52339 2.78768 3.73339 3.44102 4.22923 3.89018L7.00006 6.41018L9.77089 3.89018C10.2609 3.44102 10.4767 2.78768 10.2901 2.30352C10.1151 1.85435 9.61923 1.60352 8.89006 1.60352H5.11006Z" fill="url(#paint0_linear_102_1157)"/>
<defs>
<linearGradient id="paint0_linear_102_1157" x1="2.76587" y1="13.2702" x2="11.6853" y2="12.9445" gradientUnits="userSpaceOnUse">
<stop stop-color="#3E32D1"/>
<stop offset="1" stop-color="#4C91FF"/>
</linearGradient>
</defs>
</svg>
