<svg width="24" height="24" viewBox="0 0 24 24" fill="none" xmlns="http://www.w3.org/2000/svg">
<path d="M15.2401 22.7498H8.76007C6.87007 22.7498 5.49007 21.9598 4.96007 20.5998C4.41007 19.1798 4.92007 17.4198 6.24007 16.2298L10.8801 11.9998L6.24007 7.76982C4.92007 6.57982 4.41007 4.81982 4.96007 3.39982C5.49007 2.02982 6.87007 1.24982 8.76007 1.24982H15.2401C17.1301 1.24982 18.5101 2.03982 19.0401 3.39982C19.5901 4.81982 19.0801 6.57982 17.7601 7.76982L13.1201 11.9998L17.7701 16.2298C19.0801 17.4198 19.6001 19.1798 19.0501 20.5998C18.5101 21.9598 17.1301 22.7498 15.2401 22.7498ZM12.0001 13.0098L7.25007 17.3298C6.41007 18.0998 6.04007 19.2198 6.36007 20.0498C6.66007 20.8198 7.51007 21.2498 8.76007 21.2498H15.2401C16.4901 21.2498 17.3401 20.8298 17.6401 20.0498C17.9601 19.2198 17.6001 18.0998 16.7501 17.3298L12.0001 13.0098ZM8.76007 2.74982C7.51007 2.74982 6.66007 3.16982 6.36007 3.94982C6.04007 4.77982 6.40007 5.89982 7.25007 6.66982L12.0001 10.9898L16.7501 6.66982C17.5901 5.89982 17.9601 4.77982 17.6401 3.94982C17.3401 3.17982 16.4901 2.74982 15.2401 2.74982H8.76007Z" fill="#3E32D1"/>
</svg>
