<svg width="14" height="14" viewBox="0 0 14 14" fill="none" xmlns="http://www.w3.org/2000/svg">
<path d="M5.25016 6.27083C4.3635 6.27083 3.646 5.55333 3.646 4.66667C3.646 3.78 4.3635 3.0625 5.25016 3.0625C6.13683 3.0625 6.85433 3.78 6.85433 4.66667C6.85433 5.55333 6.13683 6.27083 5.25016 6.27083ZM5.25016 3.9375C4.84766 3.9375 4.521 4.26417 4.521 4.66667C4.521 5.06917 4.84766 5.39583 5.25016 5.39583C5.65266 5.39583 5.97933 5.06917 5.97933 4.66667C5.97933 4.26417 5.65266 3.9375 5.25016 3.9375Z" fill="white"/>
<path d="M8.74984 13.2712H5.24984C2.08234 13.2712 0.729004 11.9178 0.729004 8.75033V5.25033C0.729004 2.08283 2.08234 0.729492 5.24984 0.729492H7.58317C7.82234 0.729492 8.02067 0.927826 8.02067 1.16699C8.02067 1.40616 7.82234 1.60449 7.58317 1.60449H5.24984C2.56067 1.60449 1.604 2.56116 1.604 5.25033V8.75033C1.604 11.4395 2.56067 12.3962 5.24984 12.3962H8.74984C11.439 12.3962 12.3957 11.4395 12.3957 8.75033V5.83366C12.3957 5.59449 12.594 5.39616 12.8332 5.39616C13.0723 5.39616 13.2707 5.59449 13.2707 5.83366V8.75033C13.2707 11.9178 11.9173 13.2712 8.74984 13.2712Z" fill="white"/>
<path d="M9.14101 5.68702C8.91351 5.68702 8.70351 5.60535 8.55184 5.44785C8.37101 5.26702 8.28351 4.99868 8.32434 4.72452L8.44101 3.91368C8.47018 3.70952 8.59268 3.45868 8.74434 3.31285L10.8618 1.19535C11.7077 0.349517 12.4427 0.833683 12.8043 1.19535C13.1485 1.53952 13.306 1.90118 13.271 2.27452C13.2418 2.57202 13.0902 2.85785 12.8043 3.13785L10.6868 5.25535C10.541 5.40118 10.2902 5.52368 10.086 5.55868L9.27518 5.67535C9.22851 5.68702 9.18184 5.68702 9.14101 5.68702ZM11.4743 1.81952L9.35684 3.93702C9.33934 3.95452 9.31018 4.01868 9.30434 4.04785L9.19351 4.80618L9.95768 4.70118C9.98101 4.69535 10.0452 4.66618 10.0685 4.64285L12.186 2.52535C12.3143 2.39702 12.3902 2.28035 12.396 2.19285C12.4077 2.07035 12.2852 1.91868 12.186 1.81952C11.8827 1.51618 11.7427 1.55118 11.4743 1.81952Z" fill="white"/>
<path d="M12.1918 3.57561C12.151 3.57561 12.1102 3.56978 12.0752 3.55811C11.2935 3.33645 10.6693 2.71228 10.4477 1.93061C10.3835 1.69728 10.5177 1.45811 10.751 1.39395C10.9843 1.32978 11.2235 1.46395 11.2877 1.69728C11.4277 2.18728 11.8185 2.58395 12.3143 2.72395C12.5477 2.78811 12.6818 3.03311 12.6177 3.26061C12.5535 3.44728 12.3785 3.57561 12.1918 3.57561Z" fill="white"/>
<path d="M1.55759 11.4921C1.41759 11.4921 1.27759 11.4221 1.19592 11.2996C1.06176 11.1013 1.11426 10.8271 1.31259 10.693L4.18842 8.76215C4.81842 8.34215 5.68759 8.38881 6.25926 8.87298L6.45176 9.04215C6.74342 9.29298 7.23926 9.29298 7.52509 9.04215L9.95176 6.95965C10.5701 6.42882 11.5443 6.42882 12.1684 6.95965L13.1193 7.77631C13.3001 7.93381 13.3234 8.20798 13.1659 8.39465C13.0084 8.57548 12.7343 8.59882 12.5476 8.44132L11.5968 7.62465C11.3051 7.37381 10.8093 7.37381 10.5234 7.62465L8.09676 9.70715C7.47842 10.238 6.50426 10.238 5.88009 9.70715L5.68759 9.53798C5.41926 9.31048 4.97592 9.28715 4.67842 9.49132L1.80842 11.4221C1.72676 11.4688 1.63926 11.4921 1.55759 11.4921Z" fill="white"/>
</svg>
