<svg width="24" height="24" viewBox="0 0 24 24" fill="none" xmlns="http://www.w3.org/2000/svg">
<path fill-rule="evenodd" clip-rule="evenodd" d="M22.8799 12.2576C22.8799 11.454 22.8078 10.6813 22.6738 9.93945H11.9999V14.3234H18.0993C17.8366 15.7401 17.0381 16.9404 15.8378 17.744V20.5877H19.5005C21.6435 18.6146 22.8799 15.7092 22.8799 12.2576Z" fill="#4285F4"/>
<path fill-rule="evenodd" clip-rule="evenodd" d="M12 23.3333C15.06 23.3333 17.6254 22.3185 19.5006 20.5876L15.8379 17.7439C14.823 18.4239 13.5248 18.8258 12 18.8258C9.04814 18.8258 6.54965 16.8321 5.65844 14.1533H1.87207V17.0897C3.73692 20.7936 7.56966 23.3333 12 23.3333Z" fill="#34A853"/>
<path fill-rule="evenodd" clip-rule="evenodd" d="M5.65845 14.1542C5.43179 13.4742 5.303 12.7478 5.303 12.0008C5.303 11.2539 5.43179 10.5275 5.65845 9.8475V6.91113H1.87208C1.10451 8.44114 0.666626 10.172 0.666626 12.0008C0.666626 13.8296 1.10451 15.5605 1.87208 17.0905L5.65845 14.1542Z" fill="#FBBC05"/>
<path fill-rule="evenodd" clip-rule="evenodd" d="M12 5.17458C13.6639 5.17458 15.1578 5.74639 16.3324 6.86943L19.583 3.61882C17.6203 1.79002 15.0548 0.666992 12 0.666992C7.56966 0.666992 3.73692 3.20669 1.87207 6.91064L5.65844 9.84701C6.54965 7.16821 9.04814 5.17458 12 5.17458Z" fill="#EA4335"/>
</svg>
