<svg width="20" height="20" viewBox="0 0 20 20" fill="none" xmlns="http://www.w3.org/2000/svg">
<path d="M14 13.4003C13.3667 13.4003 12.8 13.6503 12.3667 14.042L6.425 10.5837C6.46667 10.392 6.5 10.2003 6.5 10.0003C6.5 9.80033 6.46667 9.60866 6.425 9.41699L12.3 5.99199C12.75 6.40866 13.3417 6.66699 14 6.66699C15.3833 6.66699 16.5 5.55033 16.5 4.16699C16.5 2.78366 15.3833 1.66699 14 1.66699C12.6167 1.66699 11.5 2.78366 11.5 4.16699C11.5 4.36699 11.5333 4.55866 11.575 4.75033L5.7 8.17533C5.25 7.75866 4.65833 7.50033 4 7.50033C2.61667 7.50033 1.5 8.61699 1.5 10.0003C1.5 11.3837 2.61667 12.5003 4 12.5003C4.65833 12.5003 5.25 12.242 5.7 11.8253L11.6333 15.292C11.5917 15.467 11.5667 15.6503 11.5667 15.8337C11.5667 17.1753 12.6583 18.267 14 18.267C15.3417 18.267 16.4333 17.1753 16.4333 15.8337C16.4333 14.492 15.3417 13.4003 14 13.4003Z" fill="#001029"/>
</svg>
