<svg width="21" height="21" viewBox="0 0 21 21" fill="none" xmlns="http://www.w3.org/2000/svg">
<path d="M10.5 19.9063C5.31125 19.9063 1.09375 15.6888 1.09375 10.5C1.09375 5.31125 5.31125 1.09375 10.5 1.09375C15.6888 1.09375 19.9063 5.31125 19.9063 10.5C19.9063 15.6888 15.6888 19.9063 10.5 19.9063ZM10.5 2.40625C6.0375 2.40625 2.40625 6.0375 2.40625 10.5C2.40625 14.9625 6.0375 18.5938 10.5 18.5938C14.9625 18.5938 18.5938 14.9625 18.5938 10.5C18.5938 6.0375 14.9625 2.40625 10.5 2.40625Z" fill="#484848"/>
<path d="M10.5 12.0313C10.1413 12.0313 9.84375 11.7338 9.84375 11.375V7C9.84375 6.64125 10.1413 6.34375 10.5 6.34375C10.8587 6.34375 11.1562 6.64125 11.1562 7V11.375C11.1562 11.7338 10.8587 12.0313 10.5 12.0313Z" fill="#484848"/>
<path d="M10.5 14.875C10.3863 14.875 10.2725 14.8488 10.1675 14.805C10.0625 14.7613 9.96625 14.7 9.87875 14.6213C9.8 14.5338 9.73875 14.4463 9.695 14.3325C9.65125 14.2275 9.625 14.1138 9.625 14C9.625 13.8863 9.65125 13.7725 9.695 13.6675C9.73875 13.5625 9.8 13.4663 9.87875 13.3788C9.96625 13.3 10.0625 13.2388 10.1675 13.195C10.3775 13.1075 10.6225 13.1075 10.8325 13.195C10.9375 13.2388 11.0338 13.3 11.1213 13.3788C11.2 13.4663 11.2613 13.5625 11.305 13.6675C11.3488 13.7725 11.375 13.8863 11.375 14C11.375 14.1138 11.3488 14.2275 11.305 14.3325C11.2613 14.4463 11.2 14.5338 11.1213 14.6213C11.0338 14.7 10.9375 14.7613 10.8325 14.805C10.7275 14.8488 10.6138 14.875 10.5 14.875Z" fill="#484848"/>
</svg>
