<svg width="14" height="16" viewBox="0 0 14 16" fill="none" xmlns="http://www.w3.org/2000/svg">
<path fill-rule="evenodd" clip-rule="evenodd" d="M4.24678 14.0599C5.02012 14.7999 6.01345 15.1733 7.00012 15.1733C7.98678 15.1733 8.98012 14.7999 9.75345 14.0599C11.7201 12.1666 13.8934 9.15325 13.0801 5.55992C12.3401 2.29325 9.49345 0.833252 7.00678 0.833252H7.00012C4.51345 0.833252 1.66678 2.29325 0.926784 5.55325C0.106784 9.14658 2.28012 12.1666 4.24678 14.0599ZM1.90678 5.77325C2.56678 2.86659 5.06012 1.83325 7.00012 1.83325C8.94012 1.83325 11.4401 2.86659 12.1068 5.77325C12.8134 8.91325 10.8401 11.6199 9.06012 13.3333C7.90678 14.4466 6.10012 14.4466 4.94678 13.3333C3.16012 11.6199 1.18678 8.91325 1.90678 5.77325ZM4.4201 6.86662C4.4201 8.29328 5.5801 9.44662 7.00011 9.44662C8.42011 9.44662 9.58011 8.29995 9.58011 6.87328C9.58011 5.44662 8.42011 4.29328 7.00011 4.29328C5.5801 4.29328 4.4201 5.43995 4.4201 6.86662ZM5.4201 6.87328C5.4201 5.99995 6.13344 5.29328 7.00011 5.29328C7.86677 5.29328 8.58011 5.99995 8.58011 6.87328C8.58011 7.74662 7.87344 8.45328 7.00011 8.45328C6.12677 8.45328 5.4201 7.74662 5.4201 6.87328Z" fill="url(#paint0_linear_221_2245)"/>
<defs>
<linearGradient id="paint0_linear_221_2245" x1="0.749023" y1="15.1733" x2="13.9021" y2="14.5532" gradientUnits="userSpaceOnUse">
<stop stop-color="#3E32D1"/>
<stop offset="1" stop-color="#4C91FF"/>
</linearGradient>
</defs>
</svg>
