<svg width="16" height="18" viewBox="0 0 16 18" fill="none" xmlns="http://www.w3.org/2000/svg">
<path fill-rule="evenodd" clip-rule="evenodd" d="M4.90275 15.8175C5.77275 16.65 6.89025 17.07 8.00025 17.07C9.11025 17.07 10.2278 16.65 11.0978 15.8175C13.3103 13.6875 15.7553 10.2975 14.8403 6.255C14.0078 2.58 10.8053 0.9375 8.00775 0.9375H8.00025C5.20275 0.9375 2.00025 2.58 1.16775 6.2475C0.245254 10.29 2.69025 13.6875 4.90275 15.8175ZM2.27025 6.495C3.01275 3.225 5.81775 2.0625 8.00025 2.0625C10.1828 2.0625 12.9953 3.225 13.7453 6.495C14.5403 10.0275 12.3203 13.0725 10.3178 15C9.02025 16.2525 6.98775 16.2525 5.69025 15C3.68025 13.0725 1.46025 10.0275 2.27025 6.495ZM5.09774 7.72503C5.09774 9.33003 6.40274 10.6275 8.00024 10.6275C9.59774 10.6275 10.9027 9.33753 10.9027 7.73253C10.9027 6.12753 9.59774 4.83004 8.00024 4.83004C6.40274 4.83004 5.09774 6.12003 5.09774 7.72503ZM6.22274 7.73253C6.22274 6.75003 7.02524 5.95503 8.00024 5.95503C8.97524 5.95503 9.77774 6.75003 9.77774 7.73253C9.77774 8.71503 8.98274 9.51003 8.00024 9.51003C7.01774 9.51003 6.22274 8.71503 6.22274 7.73253Z" fill="#888888"/>
</svg>
