<svg width="56" height="56" viewBox="0 0 56 56" fill="none" xmlns="http://www.w3.org/2000/svg">
<circle cx="28" cy="28" r="28" fill="url(#paint0_linear_221_2250)"/>
<path fill-rule="evenodd" clip-rule="evenodd" d="M43.9588 23.5927C44.6212 23.9871 45.1329 24.5441 45.4805 25.2488H45.4808C45.8256 25.9483 46.0004 26.7394 46.0004 27.6366C46.0004 28.5338 45.8161 29.3486 45.453 30.059C45.0874 30.7741 44.5612 31.3234 43.8898 31.6917C43.2224 32.0581 42.4918 32.2438 41.719 32.2438C40.8812 32.2438 40.1212 32.0379 39.4598 31.6323C38.7979 31.2264 38.2892 30.6642 37.9485 29.9617C37.6093 29.2644 37.4376 28.5158 37.4376 27.7375C37.4376 26.2686 37.8402 25.0999 38.6341 24.2633C39.4298 23.425 40.4696 23 41.7247 23C42.5461 23 43.2974 23.1996 43.9588 23.5927ZM43.7546 30.1329C44.2884 29.552 44.5591 28.7102 44.5591 27.6309L44.5585 27.6306C44.5585 26.9453 44.4418 26.3401 44.2115 25.8319C43.9841 25.3303 43.6477 24.9364 43.2113 24.661C42.7743 24.3854 42.2759 24.2456 41.7307 24.2456C40.9548 24.2456 40.2779 24.5157 39.7188 25.0484C39.1613 25.5797 38.8789 26.4903 38.8789 27.7552C38.8789 28.763 39.1515 29.5659 39.6886 30.1408C40.2234 30.7136 40.8894 31.0039 41.713 31.0039C42.5365 31.0039 43.2233 30.7111 43.7546 30.1329ZM18.5785 31.4444C18.2614 32.0458 17.8819 32.199 17.0137 32.0646C18.3607 29.1135 21.0906 23.1338 21.0906 23.1338L25.131 32.0788C24.1278 32.181 23.8429 32.0357 23.4656 31.2298C22.6772 29.5462 21.086 26.117 21.086 26.117L19.5661 29.3992L21.668 29.3916C21.7738 29.3913 21.9442 29.5661 22.0134 29.7844C22.1374 30.1745 22.4436 30.4673 22.4436 30.4673C22.4436 30.4673 19.4211 30.4717 19.2475 30.4673C19.2224 30.4668 19.064 30.4673 19.064 30.4673L18.5785 31.4444ZM11.3083 30.1124C11.359 29.0007 10.8514 28.5678 10.002 28.5225V28.8387C10.002 29.0388 10.0707 29.2351 10.205 29.3834C10.359 29.553 10.5729 29.6662 10.7877 29.78C10.9732 29.8782 11.1594 29.9768 11.3083 30.1124ZM16.4754 28.0518C16.7927 28.4506 16.9034 28.853 16.9459 29.0613V29.0615C17.0863 29.616 16.9792 30.0819 16.9383 30.2411C16.8974 30.3995 16.7486 30.9107 16.2928 31.3632C15.6213 32.0298 14.7762 32.0799 14.5614 32.0865L10.0008 32.0775C10.0008 32.0775 10.0191 30.6471 10.0008 29.9246C9.99894 29.8472 10.0008 29.6965 10.0008 29.6965C10.3468 29.9813 10.6529 30.1291 10.8699 30.2114C10.8952 30.221 10.9201 30.2301 10.9446 30.239L10.9446 30.239C11.0944 30.2934 11.2264 30.3413 11.3075 30.4704C11.3075 30.7558 11.3108 31.0584 11.3108 31.0584C11.3108 31.0584 13.378 31.0753 14.1754 31.0475C15.2797 31.0088 15.9253 30.0511 15.575 29.0125C15.3877 28.4572 14.9507 28.1368 14.3087 28.1311C13.0418 28.1199 11.7747 28.1126 10.5082 28.1352C10.3105 28.1387 10.0011 28.1368 10.0011 28.1368C10.0011 28.1368 10.0028 27.8457 10.0063 27.654C10.0319 26.2932 10.006 23.1608 10.006 23.1608C10.006 23.1608 12.9025 23.1415 14.1675 23.193C15.5624 23.25 16.5542 24.1651 16.645 25.3834C16.7066 26.2108 16.4015 26.8381 15.6409 27.3869C15.8307 27.4782 16.1747 27.6739 16.4754 28.0518ZM12.6032 26.5943H12.6032H12.6033C13.0711 26.5969 13.5725 26.5996 13.9595 26.5996H13.9597C14.8724 26.5996 15.3304 26.0623 15.3304 25.3281C15.3304 24.7289 14.8722 24.0714 13.9428 24.0714L11.3337 24.0555V26.5908C11.5512 26.5886 12.0541 26.5914 12.6032 26.5943ZM36.5 32.0782C36.5 32.0782 35.1977 32.1063 35.1977 31.1775C35.1977 30.4298 35.1975 29.6822 35.1972 28.9346V28.9345C35.1969 28.187 35.1966 27.4396 35.1966 26.6922C35.1621 26.6818 35.1504 26.6784 35.1334 26.6735L35.0879 26.6603C34.8344 27.0561 34.581 27.452 34.3277 27.848L34.3251 27.8521L34.3243 27.8533C33.6426 28.919 32.9609 29.9846 32.2748 31.0477C32.0125 31.4544 31.6047 31.6965 31.2356 31.7009C31.226 31.7012 31.2162 31.7012 31.2064 31.7009C30.8373 31.6965 30.4295 31.4544 30.1669 31.0477C29.4952 30.0063 28.8273 28.9625 28.1593 27.9186L28.1591 27.9182L28.1579 27.9163C27.8899 27.4976 27.622 27.0788 27.3538 26.6603L27.3323 26.6665C27.2974 26.6766 27.2934 26.6778 27.2453 26.6922C27.2453 27.4396 27.245 28.187 27.2447 28.9344C27.2443 29.682 27.244 30.4296 27.244 31.1775C27.244 32.1063 25.942 32.0782 25.942 32.0782C25.942 32.0782 25.9409 32.0141 25.942 31.7325C25.9502 28.9562 25.9493 26.1799 25.9433 23.4036C25.9431 23.2477 25.9425 23.1866 25.942 23.1654C25.9619 23.1643 26.5908 23.1411 27.2407 23.9944L31.2209 29.9014L31.2367 29.8779L35.2013 23.9944C35.8479 23.1452 36.4744 23.1643 36.4995 23.1654C36.4992 23.1866 36.4986 23.2477 36.4984 23.4036C36.4927 26.1799 36.4918 28.9562 36.4997 31.7325C36.5006 32.0141 36.4997 32.0782 36.4997 32.0782H36.5Z" fill="white"/>
<defs>
<linearGradient id="paint0_linear_221_2250" x1="-2.08616e-07" y1="56" x2="58.855" y2="52.8187" gradientUnits="userSpaceOnUse">
<stop stop-color="#3E32D1"/>
<stop offset="1" stop-color="#4C91FF"/>
</linearGradient>
</defs>
</svg>
