<svg width="21" height="21" viewBox="0 0 21 21" fill="none" xmlns="http://www.w3.org/2000/svg">
<path d="M13.335 19.4862H13.2212C9.3362 19.4862 7.4637 17.9549 7.13995 14.5249C7.10495 14.1662 7.36745 13.8424 7.73495 13.8074C8.08495 13.7724 8.41745 14.0437 8.45245 14.4024C8.7062 17.1499 10.0012 18.1737 13.23 18.1737H13.3437C16.905 18.1737 18.165 16.9137 18.165 13.3524V7.64742C18.165 4.08617 16.905 2.82617 13.3437 2.82617H13.23C9.9837 2.82617 8.6887 3.86742 8.45245 6.66742C8.4087 7.02617 8.10245 7.29742 7.73495 7.26242C7.36745 7.23617 7.10495 6.91242 7.1312 6.55367C7.4287 3.07117 9.30995 1.51367 13.2212 1.51367H13.335C17.6312 1.51367 19.4687 3.35117 19.4687 7.64742V13.3524C19.4687 17.6487 17.6312 19.4862 13.335 19.4862Z" fill="url(#paint0_linear_102_320)"/>
<path d="M13.125 11.1562H3.16748C2.80873 11.1562 2.51123 10.8587 2.51123 10.5C2.51123 10.1413 2.80873 9.84375 3.16748 9.84375H13.125C13.4837 9.84375 13.7812 10.1413 13.7812 10.5C13.7812 10.8587 13.4837 11.1562 13.125 11.1562Z" fill="url(#paint1_linear_102_320)"/>
<path d="M5.11876 14.0876C4.95251 14.0876 4.78626 14.0264 4.65501 13.8951L1.72376 10.9639C1.47001 10.7101 1.47001 10.2901 1.72376 10.0364L4.65501 7.10511C4.90876 6.85136 5.32876 6.85136 5.58251 7.10511C5.83626 7.35886 5.83626 7.77886 5.58251 8.03261L3.11501 10.5001L5.58251 12.9676C5.83626 13.2214 5.83626 13.6414 5.58251 13.8951C5.46001 14.0264 5.28501 14.0876 5.11876 14.0876Z" fill="url(#paint2_linear_102_320)"/>
<defs>
<linearGradient id="paint0_linear_102_320" x1="7.12939" y1="19.4862" x2="19.8632" y2="19.2022" gradientUnits="userSpaceOnUse">
<stop stop-color="#FF0044"/>
<stop offset="1" stop-color="#FF3A44"/>
</linearGradient>
<linearGradient id="paint1_linear_102_320" x1="2.51123" y1="11.1563" x2="13.3073" y2="8.14472" gradientUnits="userSpaceOnUse">
<stop stop-color="#FF0044"/>
<stop offset="1" stop-color="#FF3A44"/>
</linearGradient>
<linearGradient id="paint2_linear_102_320" x1="1.53345" y1="14.0876" x2="5.90893" y2="14.0036" gradientUnits="userSpaceOnUse">
<stop stop-color="#FF0044"/>
<stop offset="1" stop-color="#FF3A44"/>
</linearGradient>
</defs>
</svg>
