<svg width="32" height="32" viewBox="0 0 32 32" fill="none" xmlns="http://www.w3.org/2000/svg">
<path d="M28 10.3333H4C3.45333 10.3333 3 9.87995 3 9.33328C3 8.78662 3.45333 8.33328 4 8.33328H28C28.5467 8.33328 29 8.78662 29 9.33328C29 9.87995 28.5467 10.3333 28 10.3333Z" fill="#484848"/>
<path d="M28 16.9999H4C3.45333 16.9999 3 16.5465 3 15.9999C3 15.4532 3.45333 14.9999 4 14.9999H28C28.5467 14.9999 29 15.4532 29 15.9999C29 16.5465 28.5467 16.9999 28 16.9999Z" fill="#484848"/>
<path d="M28 23.6665H4C3.45333 23.6665 3 23.2132 3 22.6665C3 22.1198 3.45333 21.6665 4 21.6665H28C28.5467 21.6665 29 22.1198 29 22.6665C29 23.2132 28.5467 23.6665 28 23.6665Z" fill="#484848"/>
</svg>
