<svg width="21" height="21" viewBox="0 0 21 21" fill="none" xmlns="http://www.w3.org/2000/svg">
<path d="M10.5174 17.9637C8.47864 17.9637 6.43989 17.6399 4.50614 16.9924C3.77114 16.7387 3.21114 16.2224 2.96614 15.5487C2.71239 14.8749 2.79989 14.1312 3.20239 13.4662L4.20864 11.7949C4.41864 11.4449 4.61114 10.7449 4.61114 10.3337V7.80493C4.61114 4.54993 7.26239 1.89868 10.5174 1.89868C13.7724 1.89868 16.4236 4.54993 16.4236 7.80493V10.3337C16.4236 10.7362 16.6161 11.4449 16.8261 11.8037L17.8236 13.4662C18.1999 14.0962 18.2699 14.8574 18.0161 15.5487C17.7624 16.2399 17.2111 16.7649 16.5199 16.9924C14.5949 17.6399 12.5561 17.9637 10.5174 17.9637ZM10.5174 3.21118C7.98864 3.21118 5.92364 5.26743 5.92364 7.80493V10.3337C5.92364 10.9724 5.66114 11.9174 5.33739 12.4687L4.33114 14.1399C4.13864 14.4637 4.08614 14.8049 4.19989 15.0937C4.30489 15.3912 4.56739 15.6187 4.92614 15.7412C8.58364 16.9662 12.4599 16.9662 16.1174 15.7412C16.4324 15.6362 16.6774 15.3999 16.7911 15.0849C16.9049 14.7699 16.8786 14.4287 16.7036 14.1399L15.6974 12.4687C15.3649 11.8999 15.1111 10.9637 15.1111 10.3249V7.80493C15.1111 5.26743 13.0549 3.21118 10.5174 3.21118Z" fill="#484848"/>
<path d="M12.145 3.44747C12.0838 3.44747 12.0225 3.43872 11.9613 3.42122C11.7075 3.35122 11.4625 3.29872 11.2263 3.26372C10.4825 3.16747 9.76504 3.21997 9.09129 3.42122C8.84629 3.49997 8.58379 3.42122 8.41754 3.23747C8.25129 3.05372 8.19879 2.79122 8.29504 2.55497C8.65379 1.63622 9.52879 1.03247 10.5263 1.03247C11.5238 1.03247 12.3988 1.62747 12.7575 2.55497C12.845 2.79122 12.8013 3.05372 12.635 3.23747C12.5038 3.37747 12.32 3.44747 12.145 3.44747Z" fill="#484848"/>
<path d="M10.5176 19.9587C9.65133 19.9587 8.81133 19.6087 8.19883 18.9962C7.58633 18.3837 7.23633 17.5437 7.23633 16.6775H8.54883C8.54883 17.1937 8.75883 17.7012 9.12633 18.0687C9.49383 18.4362 10.0013 18.6462 10.5176 18.6462C11.6026 18.6462 12.4863 17.7625 12.4863 16.6775H13.7988C13.7988 18.4887 12.3288 19.9587 10.5176 19.9587Z" fill="#484848"/>
</svg>
