<svg width="14" height="14" viewBox="0 0 14 14" fill="none" xmlns="http://www.w3.org/2000/svg">
<path d="M7.00016 13.2708C3.9435 13.2708 1.4585 10.7858 1.4585 7.72917C1.4585 4.6725 3.9435 2.1875 7.00016 2.1875C10.0568 2.1875 12.5418 4.6725 12.5418 7.72917C12.5418 10.7858 10.0568 13.2708 7.00016 13.2708ZM7.00016 3.0625C4.42766 3.0625 2.3335 5.15667 2.3335 7.72917C2.3335 10.3017 4.42766 12.3958 7.00016 12.3958C9.57266 12.3958 11.6668 10.3017 11.6668 7.72917C11.6668 5.15667 9.57266 3.0625 7.00016 3.0625Z" fill="url(#paint0_linear_102_3568)"/>
<path d="M7 8.02085C6.76083 8.02085 6.5625 7.82252 6.5625 7.58335V4.66669C6.5625 4.42752 6.76083 4.22919 7 4.22919C7.23917 4.22919 7.4375 4.42752 7.4375 4.66669V7.58335C7.4375 7.82252 7.23917 8.02085 7 8.02085Z" fill="url(#paint1_linear_102_3568)"/>
<path d="M8.75 1.60419H5.25C5.01083 1.60419 4.8125 1.40585 4.8125 1.16669C4.8125 0.92752 5.01083 0.729187 5.25 0.729187H8.75C8.98917 0.729187 9.1875 0.92752 9.1875 1.16669C9.1875 1.40585 8.98917 1.60419 8.75 1.60419Z" fill="url(#paint2_linear_102_3568)"/>
<defs>
<linearGradient id="paint0_linear_102_3568" x1="1.4585" y1="13.2708" x2="13.1069" y2="12.6412" gradientUnits="userSpaceOnUse">
<stop stop-color="#3E32D1"/>
<stop offset="1" stop-color="#4C91FF"/>
</linearGradient>
<linearGradient id="paint1_linear_102_3568" x1="6.5625" y1="8.02085" x2="7.48465" y2="8.00935" gradientUnits="userSpaceOnUse">
<stop stop-color="#3E32D1"/>
<stop offset="1" stop-color="#4C91FF"/>
</linearGradient>
<linearGradient id="paint2_linear_102_3568" x1="4.8125" y1="1.60419" x2="9.11007" y2="0.442703" gradientUnits="userSpaceOnUse">
<stop stop-color="#3E32D1"/>
<stop offset="1" stop-color="#4C91FF"/>
</linearGradient>
</defs>
</svg>
