<svg width="117" height="70" viewBox="0 0 117 70" fill="none" xmlns="http://www.w3.org/2000/svg">
<rect width="117" height="70" fill="#F7F7F7"/>
<path d="M61.4997 47.5417H54.4997C48.1647 47.5417 45.458 44.835 45.458 38.5V31.5C45.458 25.165 48.1647 22.4583 54.4997 22.4583H61.4997C67.8347 22.4583 70.5413 25.165 70.5413 31.5V38.5C70.5413 44.835 67.8347 47.5417 61.4997 47.5417ZM54.4997 24.2083C49.1213 24.2083 47.208 26.1217 47.208 31.5V38.5C47.208 43.8783 49.1213 45.7917 54.4997 45.7917H61.4997C66.878 45.7917 68.7913 43.8783 68.7913 38.5V31.5C68.7913 26.1217 66.878 24.2083 61.4997 24.2083H54.4997Z" fill="#001029"/>
<path d="M54.5008 33.5417C52.7275 33.5417 51.2925 32.1067 51.2925 30.3333C51.2925 28.56 52.7275 27.125 54.5008 27.125C56.2741 27.125 57.7091 28.56 57.7091 30.3333C57.7091 32.1067 56.2741 33.5417 54.5008 33.5417ZM54.5008 28.875C53.6958 28.875 53.0425 29.5283 53.0425 30.3333C53.0425 31.1383 53.6958 31.7917 54.5008 31.7917C55.3058 31.7917 55.9591 31.1383 55.9591 30.3333C55.9591 29.5283 55.3058 28.875 54.5008 28.875Z" fill="#001029"/>
<path d="M47.1155 43.9833C46.8355 43.9833 46.5555 43.8433 46.3922 43.5983C46.1239 43.2017 46.2289 42.6533 46.6372 42.385L52.3889 38.5233C53.6489 37.6717 55.3872 37.7767 56.5305 38.745L56.9155 39.0833C57.4989 39.585 58.4905 39.585 59.0622 39.0833L63.9155 34.9183C65.1522 33.8567 67.1005 33.8567 68.3489 34.9183L70.2505 36.5517C70.6122 36.8667 70.6589 37.415 70.3439 37.7883C70.0289 38.15 69.4805 38.1967 69.1072 37.8817L67.2055 36.2483C66.6222 35.7467 65.6305 35.7467 65.0472 36.2483L60.1939 40.4133C58.9572 41.475 57.0089 41.475 55.7605 40.4133L55.3755 40.075C54.8389 39.62 53.9522 39.5733 53.3572 39.9817L47.6055 43.8433C47.4539 43.9367 47.2789 43.9833 47.1155 43.9833Z" fill="#001029"/>
</svg>
