<svg width="70" height="70" viewBox="0 0 70 70" fill="none" xmlns="http://www.w3.org/2000/svg">
<rect width="70" height="70" fill="#F7F7F7"/>
<path d="M38.4997 47.5417H31.4997C25.1647 47.5417 22.458 44.835 22.458 38.5V31.5C22.458 25.165 25.1647 22.4583 31.4997 22.4583H38.4997C44.8347 22.4583 47.5413 25.165 47.5413 31.5V38.5C47.5413 44.835 44.8347 47.5417 38.4997 47.5417ZM31.4997 24.2083C26.1213 24.2083 24.208 26.1217 24.208 31.5V38.5C24.208 43.8783 26.1213 45.7917 31.4997 45.7917H38.4997C43.878 45.7917 45.7913 43.8783 45.7913 38.5V31.5C45.7913 26.1217 43.878 24.2083 38.4997 24.2083H31.4997Z" fill="#001029"/>
<path d="M31.5008 33.5417C29.7275 33.5417 28.2925 32.1067 28.2925 30.3333C28.2925 28.56 29.7275 27.125 31.5008 27.125C33.2741 27.125 34.7091 28.56 34.7091 30.3333C34.7091 32.1067 33.2741 33.5417 31.5008 33.5417ZM31.5008 28.875C30.6958 28.875 30.0425 29.5283 30.0425 30.3333C30.0425 31.1383 30.6958 31.7917 31.5008 31.7917C32.3058 31.7917 32.9591 31.1383 32.9591 30.3333C32.9591 29.5283 32.3058 28.875 31.5008 28.875Z" fill="#001029"/>
<path d="M24.1155 43.9833C23.8355 43.9833 23.5555 43.8433 23.3922 43.5983C23.1239 43.2017 23.2289 42.6533 23.6372 42.385L29.3889 38.5233C30.6489 37.6717 32.3872 37.7767 33.5305 38.745L33.9155 39.0833C34.4989 39.585 35.4905 39.585 36.0622 39.0833L40.9155 34.9183C42.1522 33.8567 44.1005 33.8567 45.3489 34.9183L47.2505 36.5517C47.6122 36.8667 47.6589 37.415 47.3439 37.7883C47.0289 38.15 46.4805 38.1967 46.1072 37.8817L44.2055 36.2483C43.6222 35.7467 42.6305 35.7467 42.0472 36.2483L37.1939 40.4133C35.9572 41.475 34.0089 41.475 32.7605 40.4133L32.3755 40.075C31.8389 39.62 30.9522 39.5733 30.3572 39.9817L24.6055 43.8433C24.4539 43.9367 24.2789 43.9833 24.1155 43.9833Z" fill="#001029"/>
</svg>
