<svg width="21" height="21" viewBox="0 0 21 21" fill="none" xmlns="http://www.w3.org/2000/svg">
<path d="M18.0424 11.4363C17.7099 11.4363 17.4299 11.1826 17.3862 10.8501C17.1762 8.87256 16.1087 7.07881 14.4637 5.94131C14.1662 5.73131 14.0962 5.32881 14.2974 5.03131C14.5074 4.73381 14.9187 4.66381 15.2074 4.86506C17.1674 6.22131 18.4274 8.35631 18.6812 10.7101C18.7162 11.0688 18.4624 11.3926 18.0949 11.4363C18.0862 11.4363 18.0599 11.4363 18.0424 11.4363Z" fill="#484848"/>
<path d="M3.05391 11.4801C3.02766 11.4801 3.01016 11.4801 2.98391 11.4801C2.62516 11.4364 2.36266 11.1126 2.39766 10.7539C2.63391 8.4001 3.88516 6.27385 5.81891 4.9001C6.11641 4.6901 6.52766 4.7601 6.73766 5.0576C6.94766 5.3551 6.87766 5.76635 6.58016 5.97635C4.95266 7.1226 3.90266 8.91635 3.70141 10.8939C3.67516 11.2264 3.38641 11.4801 3.05391 11.4801Z" fill="#484848"/>
<path d="M10.5525 19.7837C9.25747 19.7837 8.02372 19.4862 6.86872 18.9087C6.54497 18.7425 6.41372 18.3487 6.57997 18.025C6.74622 17.7012 7.13997 17.57 7.46372 17.7362C9.35372 18.69 11.6287 18.7075 13.5362 17.7887C13.86 17.6312 14.2537 17.7712 14.4112 18.095C14.5687 18.4187 14.4287 18.8125 14.105 18.97C12.985 19.5125 11.795 19.7837 10.5525 19.7837Z" fill="#484848"/>
<path d="M10.5526 7.38502C8.84637 7.38502 7.46387 6.00252 7.46387 4.29627C7.46387 2.59002 8.84637 1.20752 10.5526 1.20752C12.2589 1.20752 13.6414 2.59002 13.6414 4.29627C13.6414 6.00252 12.2501 7.38502 10.5526 7.38502ZM10.5526 2.52877C9.57262 2.52877 8.77637 3.32502 8.77637 4.30502C8.77637 5.28502 9.57262 6.08127 10.5526 6.08127C11.5326 6.08127 12.3289 5.28502 12.3289 4.30502C12.3289 3.32502 11.5239 2.52877 10.5526 2.52877Z" fill="#484848"/>
<path d="M4.2262 18.0862C2.51995 18.0862 1.13745 16.7037 1.13745 14.9974C1.13745 13.2999 2.51995 11.9087 4.2262 11.9087C5.93245 11.9087 7.31495 13.2912 7.31495 14.9974C7.31495 16.6949 5.93245 18.0862 4.2262 18.0862ZM4.2262 13.2212C3.2462 13.2212 2.44995 14.0174 2.44995 14.9974C2.44995 15.9774 3.2462 16.7737 4.2262 16.7737C5.2062 16.7737 6.00245 15.9774 6.00245 14.9974C6.00245 14.0174 5.2062 13.2212 4.2262 13.2212Z" fill="#484848"/>
<path d="M16.7736 18.0862C15.0673 18.0862 13.6848 16.7037 13.6848 14.9974C13.6848 13.2999 15.0673 11.9087 16.7736 11.9087C18.4798 11.9087 19.8623 13.2912 19.8623 14.9974C19.8536 16.6949 18.4711 18.0862 16.7736 18.0862ZM16.7736 13.2212C15.7936 13.2212 14.9973 14.0174 14.9973 14.9974C14.9973 15.9774 15.7936 16.7737 16.7736 16.7737C17.7536 16.7737 18.5498 15.9774 18.5498 14.9974C18.5411 14.0174 17.7536 13.2212 16.7736 13.2212Z" fill="#484848"/>
</svg>
