<svg width="14" height="14" viewBox="0 0 14 14" fill="none" xmlns="http://www.w3.org/2000/svg">
<path d="M9.33338 13.2709H4.66672C1.97172 13.2709 1.47005 12.0167 1.34172 10.7975L0.904218 6.12503C0.840051 5.51253 0.822551 4.60836 1.42922 3.93169C1.95422 3.34836 2.82338 3.06836 4.08338 3.06836H9.91672C11.1826 3.06836 12.0517 3.35419 12.5709 3.93169C13.1776 4.60836 13.1601 5.51253 13.0959 6.13086L12.6584 10.7917C12.5301 12.0167 12.0284 13.2709 9.33338 13.2709ZM4.08338 3.93753C3.09755 3.93753 2.42088 4.13003 2.07672 4.51503C1.79088 4.83003 1.69755 5.31419 1.77338 6.03753L2.21088 10.71C2.31005 11.6317 2.56088 12.3959 4.66672 12.3959H9.33338C11.4334 12.3959 11.6901 11.6317 11.7892 10.7042L12.2267 6.04336C12.3026 5.31419 12.2092 4.83003 11.9234 4.51503C11.5792 4.13003 10.9026 3.93753 9.91672 3.93753H4.08338Z" fill="url(#paint0_linear_0_3184)"/>
<path d="M9.33341 3.93752C9.09425 3.93752 8.89591 3.73919 8.89591 3.50002V3.03335C8.89591 1.99502 8.89591 1.60419 7.46675 1.60419H6.53341C5.10425 1.60419 5.10425 1.99502 5.10425 3.03335V3.50002C5.10425 3.73919 4.90591 3.93752 4.66675 3.93752C4.42758 3.93752 4.22925 3.73919 4.22925 3.50002V3.03335C4.22925 2.00669 4.22925 0.729187 6.53341 0.729187H7.46675C9.77091 0.729187 9.77091 2.00669 9.77091 3.03335V3.50002C9.77091 3.73919 9.57258 3.93752 9.33341 3.93752Z" fill="url(#paint1_linear_0_3184)"/>
<path d="M6.99992 9.77083C5.39575 9.77083 5.39575 8.77917 5.39575 8.18417V7.58333C5.39575 6.76083 5.59409 6.5625 6.41659 6.5625H7.58325C8.40575 6.5625 8.60409 6.76083 8.60409 7.58333V8.16667C8.60409 8.77333 8.60409 9.77083 6.99992 9.77083ZM6.27075 7.4375C6.27075 7.48417 6.27075 7.53667 6.27075 7.58333V8.18417C6.27075 8.785 6.27075 8.89583 6.99992 8.89583C7.72909 8.89583 7.72909 8.8025 7.72909 8.17833V7.58333C7.72909 7.53667 7.72909 7.48417 7.72909 7.4375C7.68242 7.4375 7.62992 7.4375 7.58325 7.4375H6.41659C6.36992 7.4375 6.31742 7.4375 6.27075 7.4375Z" fill="url(#paint2_linear_0_3184)"/>
<path d="M8.16663 8.61581C7.95079 8.61581 7.75829 8.45248 7.73496 8.23081C7.70579 7.99164 7.87496 7.76998 8.11413 7.74081C9.65413 7.54831 11.13 6.96498 12.3725 6.06081C12.565 5.91498 12.8391 5.96164 12.985 6.15998C13.125 6.35248 13.0841 6.62664 12.8858 6.77248C11.5208 7.76414 9.91079 8.39998 8.21913 8.61581C8.20163 8.61581 8.18413 8.61581 8.16663 8.61581Z" fill="url(#paint3_linear_0_3184)"/>
<path d="M5.83327 8.62169C5.81577 8.62169 5.79827 8.62169 5.78077 8.62169C4.18243 8.44086 2.62493 7.85753 1.27743 6.93586C1.0791 6.80169 1.0266 6.52752 1.16077 6.32919C1.29493 6.13086 1.5691 6.07836 1.76743 6.21252C2.99827 7.05252 4.41577 7.58336 5.8741 7.75252C6.11327 7.78169 6.28827 7.99752 6.2591 8.23669C6.2416 8.45836 6.05493 8.62169 5.83327 8.62169Z" fill="url(#paint4_linear_0_3184)"/>
<defs>
<linearGradient id="paint0_linear_0_3184" x1="0.873779" y1="13.2709" x2="13.7344" y2="12.436" gradientUnits="userSpaceOnUse">
<stop stop-color="#3E32D1"/>
<stop offset="1" stop-color="#4C91FF"/>
</linearGradient>
<linearGradient id="paint1_linear_0_3184" x1="4.22925" y1="3.93752" x2="10.02" y2="3.39687" gradientUnits="userSpaceOnUse">
<stop stop-color="#3E32D1"/>
<stop offset="1" stop-color="#4C91FF"/>
</linearGradient>
<linearGradient id="paint2_linear_0_3184" x1="5.39575" y1="9.77083" x2="8.76765" y2="9.58857" gradientUnits="userSpaceOnUse">
<stop stop-color="#3E32D1"/>
<stop offset="1" stop-color="#4C91FF"/>
</linearGradient>
<linearGradient id="paint3_linear_0_3184" x1="7.73169" y1="8.61581" x2="13.2898" y2="8.00863" gradientUnits="userSpaceOnUse">
<stop stop-color="#3E32D1"/>
<stop offset="1" stop-color="#4C91FF"/>
</linearGradient>
<linearGradient id="paint4_linear_0_3184" x1="1.08643" y1="8.62169" x2="6.47368" y2="8.01481" gradientUnits="userSpaceOnUse">
<stop stop-color="#3E32D1"/>
<stop offset="1" stop-color="#4C91FF"/>
</linearGradient>
</defs>
</svg>
