<svg width="14" height="14" viewBox="0 0 14 14" fill="none" xmlns="http://www.w3.org/2000/svg">
<rect width="14" height="14" fill="white"/>
<path fill-rule="evenodd" clip-rule="evenodd" d="M0.729248 7.00033C0.729248 10.4595 3.54092 13.2712 7.00008 13.2712C10.4592 13.2712 13.2709 10.4595 13.2709 7.00033C13.2709 3.54116 10.4592 0.729492 7.00008 0.729492C3.54092 0.729492 0.729248 3.54116 0.729248 7.00033ZM1.60425 7.00033C1.60425 4.02533 4.02508 1.60449 7.00008 1.60449C9.97508 1.60449 12.3959 4.02533 12.3959 7.00033C12.3959 9.97533 9.97508 12.3962 7.00008 12.3962C4.02508 12.3962 1.60425 9.97533 1.60425 7.00033ZM5.86258 8.96032C5.94424 9.04199 6.05508 9.08866 6.17174 9.08866C6.28841 9.08866 6.39924 9.04199 6.48091 8.96032L9.78841 5.65282C9.95758 5.48366 9.95758 5.20366 9.78841 5.03449C9.61924 4.86532 9.33924 4.86532 9.17008 5.03449L6.17174 8.03282L4.83008 6.69116C4.66091 6.52199 4.38091 6.52199 4.21174 6.69116C4.04258 6.86032 4.04258 7.14032 4.21174 7.30949L5.86258 8.96032Z" fill="url(#paint0_linear_0_1549)"/>
<defs>
<linearGradient id="paint0_linear_0_1549" x1="0.900271" y1="13.2712" x2="15.596" y2="9.27062" gradientUnits="userSpaceOnUse">
<stop stop-color="#1DAF59"/>
<stop offset="1" stop-color="#54E18E"/>
</linearGradient>
</defs>
</svg>
