<svg width="24" height="24" viewBox="0 0 24 24" fill="none" xmlns="http://www.w3.org/2000/svg">
<path d="M15 22.75H9C3.57 22.75 1.25 20.43 1.25 15V9C1.25 3.57 3.57 1.25 9 1.25H15C20.43 1.25 22.75 3.57 22.75 9V15C22.75 20.43 20.43 22.75 15 22.75ZM9 2.75C4.39 2.75 2.75 4.39 2.75 9V15C2.75 19.61 4.39 21.25 9 21.25H15C19.61 21.25 21.25 19.61 21.25 15V9C21.25 4.39 19.61 2.75 15 2.75H9Z" fill="url(#paint0_linear_0_3869)"/>
<path d="M10.5799 15.5806C10.3799 15.5806 10.1899 15.5006 10.0499 15.3606L7.21994 12.5306C6.92994 12.2406 6.92994 11.7606 7.21994 11.4706C7.50994 11.1806 7.98994 11.1806 8.27994 11.4706L10.5799 13.7706L15.7199 8.63059C16.0099 8.34059 16.4899 8.34059 16.7799 8.63059C17.0699 8.92059 17.0699 9.40059 16.7799 9.69059L11.1099 15.3606C10.9699 15.5006 10.7799 15.5806 10.5799 15.5806Z" fill="url(#paint1_linear_0_3869)"/>
<defs>
<linearGradient id="paint0_linear_0_3869" x1="1.25" y1="22.75" x2="23.8461" y2="21.5286" gradientUnits="userSpaceOnUse">
<stop stop-color="#3E32D1"/>
<stop offset="1" stop-color="#4C91FF"/>
</linearGradient>
<linearGradient id="paint1_linear_0_3869" x1="7.00244" y1="15.5806" x2="17.4782" y2="14.791" gradientUnits="userSpaceOnUse">
<stop stop-color="#3E32D1"/>
<stop offset="1" stop-color="#4C91FF"/>
</linearGradient>
</defs>
</svg>
