<svg width="125" height="32" viewBox="0 0 125 32" fill="none" xmlns="http://www.w3.org/2000/svg">
<path fill-rule="evenodd" clip-rule="evenodd" d="M117.406 2.04904C119.697 3.41287 121.466 5.33844 122.668 7.77486H122.668C123.861 10.1934 124.465 12.9286 124.465 16.0304C124.465 19.1322 123.828 21.9494 122.572 24.4056C121.308 26.8779 119.489 28.7771 117.168 30.0504C114.861 31.3172 112.335 31.959 109.663 31.959C106.766 31.959 104.138 31.2474 101.852 29.8449C99.5635 28.4415 97.8047 26.498 96.6266 24.0692C95.4541 21.6582 94.8603 19.07 94.8603 16.3791C94.8603 11.3008 96.2524 7.26024 98.997 4.36764C101.748 1.46939 105.343 0 109.682 0C112.522 0 115.12 0.689925 117.406 2.04904ZM116.7 24.6611C118.546 22.6526 119.482 19.742 119.482 16.0106L119.48 16.0097C119.48 13.6402 119.077 11.5478 118.28 9.79091C117.494 8.05667 116.331 6.69473 114.822 5.74278C113.311 4.78989 111.588 4.30638 109.703 4.30638C107.021 4.30638 104.68 5.24042 102.747 7.08211C100.82 8.91908 99.8434 12.0671 99.8434 16.4404C99.8434 19.9249 100.786 22.7006 102.643 24.6884C104.492 26.6686 106.795 27.6724 109.642 27.6724C112.489 27.6724 114.863 26.6602 116.7 24.6611ZM29.6594 29.1955C28.5632 31.2747 27.2512 31.8044 24.2493 31.3398C28.9063 21.137 38.3447 0.462789 38.3447 0.462789L52.3138 31.3888C48.8453 31.7422 47.8604 31.2399 46.5559 28.4538C43.8302 22.6328 38.3287 10.7768 38.3287 10.7768L33.0741 22.1248L40.341 22.0984C40.7067 22.0974 41.2957 22.7016 41.5351 23.4565C41.964 24.8053 43.0224 25.8176 43.0224 25.8176C43.0224 25.8176 32.5727 25.8326 31.9723 25.8176C31.8856 25.8157 31.338 25.8176 31.338 25.8176L29.6594 29.1955ZM4.5205 24.5906C4.69581 20.747 2.94084 19.2503 0.00394321 19.0938V20.1872C0.00394321 20.879 0.241458 21.5576 0.706121 22.0703C1.23824 22.6566 1.97776 23.0482 2.72056 23.4415C3.36187 23.7811 4.00563 24.122 4.5205 24.5906ZM22.3878 17.4659C23.4849 18.8448 23.8676 20.236 24.0146 20.956V20.957C24.5 22.8741 24.1296 24.4848 23.9882 25.0353C23.8468 25.5829 23.3322 27.3501 21.7563 28.9147C19.4349 31.2192 16.5131 31.3926 15.7704 31.4152L0.00293229 31.3841C0.00293229 31.3841 0.0660812 26.4387 0.00293229 23.941C-0.00366536 23.6733 0.00293229 23.1521 0.00293229 23.1521C1.19899 24.1371 2.25744 24.6479 3.00769 24.9325C3.09505 24.9658 3.18128 24.9971 3.26587 25.0278C3.78362 25.2158 4.24012 25.3815 4.52044 25.8279C4.52044 26.8148 4.53174 27.861 4.53174 27.861C4.53174 27.861 11.6789 27.9194 14.4358 27.8233C18.2539 27.6894 20.4858 24.3783 19.2747 20.7873C18.6271 18.8674 17.1163 17.76 14.8966 17.7402C10.5168 17.7015 6.13592 17.6761 1.75696 17.7543C1.07363 17.7666 0.00387429 17.76 0.00387429 17.76C0.00387429 17.76 0.00952965 16.7533 0.0217824 16.0908C0.110379 11.3857 0.020839 0.556118 0.020839 0.556118C0.020839 0.556118 10.0351 0.489204 14.4084 0.667341C19.2313 0.864328 22.6602 4.02837 22.9741 8.2405C23.1871 11.101 22.1324 13.2698 19.5028 15.1671C20.1587 15.4828 21.3482 16.1596 22.3878 17.4659ZM9.00027 12.427H9.00049L9.0008 12.427C10.6181 12.4357 12.3513 12.4451 13.6893 12.4451H13.6902C16.8458 12.4451 18.4292 10.5874 18.4292 8.04916C18.4292 5.9775 16.8448 3.70414 13.6318 3.70414L4.61092 3.64947V12.4149C5.36304 12.4073 7.10154 12.4167 8.99982 12.427L9.00027 12.427ZM91.6199 31.387C91.6199 31.387 87.1174 31.4841 87.1174 28.273C87.1174 25.7085 87.1165 23.1444 87.1156 20.5803L87.1156 20.5186V20.5182C87.1146 17.934 87.1137 15.3498 87.1137 12.7657C86.9944 12.7299 86.9537 12.7182 86.8952 12.7013L86.8952 12.7012C86.858 12.6905 86.8138 12.6777 86.7376 12.6554C85.8583 14.0281 84.9798 15.4014 84.1013 16.7747C81.7432 20.4608 79.3849 24.1471 77.0117 27.8243C76.105 29.2306 74.695 30.0675 73.4188 30.0826C73.3859 30.0835 73.3519 30.0835 73.318 30.0826C72.0418 30.0675 70.6318 29.2306 69.7242 27.8243C67.4022 24.2244 65.0931 20.6158 62.784 17.0071L62.7832 17.0059L62.7826 17.0048C61.8548 15.5548 60.9269 14.1048 59.9983 12.6554L59.9236 12.677C59.803 12.7119 59.7892 12.7159 59.6232 12.7657C59.6232 15.3498 59.622 17.9337 59.6208 20.5179C59.6196 23.1025 59.6185 25.6874 59.6185 28.273C59.6185 31.4841 55.117 31.387 55.117 31.387C55.117 31.387 55.1132 31.1656 55.117 30.1919C55.1452 20.5933 55.1424 10.9947 55.1217 1.39602C55.1207 0.856899 55.1189 0.645775 55.117 0.572258C55.1858 0.568488 57.3602 0.488371 59.6071 3.43846L73.368 23.861L73.4226 23.78L87.1297 3.43846C89.3654 0.502509 91.5313 0.568488 91.618 0.572258C91.617 0.645775 91.6152 0.856899 91.6142 1.39602C91.5944 10.9947 91.5916 20.5933 91.6189 30.1919C91.6218 31.1656 91.6189 31.387 91.6189 31.387H91.6199Z" fill="url(#paint0_linear_0_4447)"/>
<defs>
<linearGradient id="paint0_linear_0_4447" x1="-4.63668e-07" y1="31.959" x2="125.626" y2="5.51356" gradientUnits="userSpaceOnUse">
<stop stop-color="#3E32D1"/>
<stop offset="1" stop-color="#4C91FF"/>
</linearGradient>
</defs>
</svg>
