<svg width="170" height="44" viewBox="0 0 170 44" fill="none" xmlns="http://www.w3.org/2000/svg">
<path opacity="0.1" fill-rule="evenodd" clip-rule="evenodd" d="M159.921 2.93067C163.04 4.78836 165.45 7.4112 167.087 10.7299H167.088C168.712 14.0242 169.535 17.7498 169.535 21.9749C169.535 26.1999 168.667 30.0373 166.957 33.3829C165.236 36.7503 162.758 39.3372 159.596 41.0717C156.453 42.7971 153.012 43.6714 149.373 43.6714C145.428 43.6714 141.848 42.7021 138.734 40.7918C135.617 38.8802 133.221 36.233 131.616 32.9246C130.019 29.6406 129.21 26.1152 129.21 22.4499C129.21 15.5326 131.107 10.0289 134.845 6.08887C138.593 2.14112 143.489 0.139648 149.4 0.139648C153.268 0.139648 156.806 1.0794 159.921 2.93067ZM158.959 33.7308C161.473 30.995 162.748 27.0305 162.748 21.9479L162.745 21.9466C162.745 18.7191 162.196 15.869 161.111 13.476C160.04 11.1137 158.456 9.25862 156.4 7.96196C154.342 6.66402 151.996 6.00542 149.428 6.00542C145.774 6.00542 142.587 7.27769 139.953 9.78627C137.328 12.2884 135.998 16.5764 135.998 22.5333C135.998 27.2796 137.282 31.0605 139.811 33.768C142.33 36.4653 145.466 37.8326 149.345 37.8326C153.223 37.8326 156.457 36.4538 158.959 33.7308ZM40.3994 39.9073C38.9063 42.7394 37.1192 43.4609 33.0303 42.8279C39.3736 28.9306 52.2298 0.770002 52.2298 0.770002L71.2573 42.8947C66.5328 43.3761 65.1912 42.6919 63.4144 38.8969C59.7016 30.968 52.208 14.8188 52.208 14.8188L45.0507 30.276L54.9489 30.2401C55.447 30.2388 56.2494 31.0617 56.5755 32.0901C57.1597 33.9272 58.6014 35.306 58.6014 35.306C58.6014 35.306 44.3677 35.3266 43.5499 35.306C43.4318 35.3035 42.6859 35.306 42.6859 35.306L40.3994 39.9073ZM6.15737 33.6346C6.39616 28.3992 4.00569 26.3605 0.0053053 26.1473V27.6366C0.0053053 28.5789 0.328828 29.5032 0.961751 30.2016C1.68656 31.0002 2.69386 31.5336 3.70564 32.0694C4.57918 32.532 5.45606 32.9963 6.15737 33.6346ZM30.4947 23.9301C31.9891 25.8083 32.5103 27.7032 32.7106 28.6841V28.6854C33.3718 31.2966 32.8672 33.4907 32.6746 34.2404C32.4821 34.9863 31.7811 37.3935 29.6346 39.5247C26.4725 42.6636 22.4927 42.8998 21.481 42.9306L0.00399411 42.8883C0.00399411 42.8883 0.09001 36.1521 0.00399411 32.7499C-0.00499263 32.3853 0.00399411 31.6754 0.00399411 31.6754C1.63316 33.017 3.07489 33.7128 4.09681 34.1005C4.21581 34.1458 4.33326 34.1884 4.44848 34.2302C5.15372 34.4863 5.77552 34.7121 6.15734 35.3201C6.15734 36.6643 6.17275 38.0893 6.17275 38.0893C6.17275 38.0893 15.908 38.1689 19.6631 38.038C24.8639 37.8557 27.904 33.3456 26.2543 28.4543C25.3723 25.8391 23.3143 24.3306 20.2909 24.3037C14.325 24.251 8.35781 24.2164 2.39318 24.3229C1.46241 24.3396 0.00527722 24.3306 0.00527722 24.3306C0.00527722 24.3306 0.0129805 22.9595 0.0296701 22.057C0.150349 15.6482 0.028385 0.89707 0.028385 0.89707C0.028385 0.89707 13.669 0.805925 19.6259 1.04857C26.1952 1.31689 30.8657 5.62667 31.2933 11.3641C31.5834 15.2605 30.1468 18.2145 26.5649 20.7989C27.4585 21.2289 29.0787 22.1507 30.4947 23.9301ZM12.2595 17.0665H12.2597H12.2601C14.4631 17.0784 16.8239 17.0912 18.6463 17.0912H18.6476C22.9459 17.0912 25.1027 14.5608 25.1027 11.1034C25.1027 8.2816 22.9446 5.18503 18.568 5.18503L6.28059 5.11057V17.0501C7.30516 17.0397 9.6735 17.0525 12.2594 17.0665H12.2595H12.2595ZM124.796 42.8922C124.796 42.8922 118.664 43.0245 118.664 38.6505C118.664 35.1295 118.662 31.6087 118.661 28.0882V28.0877C118.66 24.5676 118.659 21.0477 118.659 17.5278C118.57 17.5013 118.513 17.4845 118.467 17.471C118.428 17.4596 118.397 17.4505 118.361 17.44L118.361 17.44C118.31 17.4254 118.25 17.408 118.146 17.3776C116.951 19.2434 115.757 21.11 114.563 22.9765L114.556 22.9882L114.555 22.9894C111.343 28.0101 108.131 33.0309 104.899 38.0394C103.664 39.9548 101.743 41.0949 100.005 41.1154C99.9597 41.1167 99.9135 41.1167 99.8672 41.1154C98.129 41.0949 96.2084 39.9548 94.972 38.0394C91.8088 33.1352 88.6632 28.2192 85.5176 23.3032C84.2535 21.3277 82.9895 19.3523 81.7243 17.3776L81.6224 17.4071C81.4583 17.4546 81.4394 17.4601 81.2133 17.5278C81.2133 21.0474 81.2117 24.5667 81.2101 28.0863V28.0872L81.2101 28.1361C81.2085 31.6403 81.2069 35.1449 81.2069 38.6505C81.2069 43.0245 75.0754 42.8922 75.0754 42.8922C75.0754 42.8922 75.0703 42.5905 75.0754 41.2643C75.1139 28.1899 75.1101 15.1155 75.0818 2.04107C75.0805 1.30673 75.078 1.01915 75.0754 0.919013C75.1691 0.913877 78.1309 0.804749 81.1915 4.82311L99.9353 32.6409L100.01 32.5305L118.68 4.82311C121.726 0.824006 124.676 0.913877 124.794 0.919013C124.793 1.01915 124.79 1.30673 124.789 2.04107C124.762 15.1155 124.758 28.1899 124.795 41.2643C124.799 42.5905 124.795 42.8922 124.795 42.8922H124.796Z" fill="white"/>
</svg>
