<svg width="20" height="20" viewBox="0 0 20 20" fill="none" xmlns="http://www.w3.org/2000/svg">
<path d="M10.0001 18.0413C9.74175 18.0413 9.49175 18.008 9.28341 17.933C6.10008 16.8413 1.04175 12.9663 1.04175 7.24134C1.04175 4.32467 3.40008 1.95801 6.30008 1.95801C7.70841 1.95801 9.02508 2.50801 10.0001 3.49134C10.9751 2.50801 12.2917 1.95801 13.7001 1.95801C16.6001 1.95801 18.9584 4.33301 18.9584 7.24134C18.9584 12.9747 13.9001 16.8413 10.7167 17.933C10.5084 18.008 10.2584 18.0413 10.0001 18.0413ZM6.30008 3.20801C4.09175 3.20801 2.29175 5.01634 2.29175 7.24134C2.29175 12.933 7.76675 16.0997 9.69175 16.758C9.84175 16.808 10.1667 16.808 10.3167 16.758C12.2334 16.0997 17.7167 12.9413 17.7167 7.24134C17.7167 5.01634 15.9167 3.20801 13.7084 3.20801C12.4417 3.20801 11.2667 3.79967 10.5084 4.82467C10.2751 5.14134 9.74175 5.14134 9.50841 4.82467C8.73341 3.79134 7.56675 3.20801 6.30008 3.20801Z" fill="white"/>
</svg>
