<svg width="18" height="18" viewBox="0 0 18 18" fill="none" xmlns="http://www.w3.org/2000/svg">
<path d="M9.75 7.3125H5.25C4.9425 7.3125 4.6875 7.0575 4.6875 6.75C4.6875 6.4425 4.9425 6.1875 5.25 6.1875H9.75C10.0575 6.1875 10.3125 6.4425 10.3125 6.75C10.3125 7.0575 10.0575 7.3125 9.75 7.3125Z" fill="#888888"/>
<path d="M14.2799 11.0999C13.1474 11.0999 12.1874 10.2599 12.0974 9.17989C12.0374 8.55739 12.2624 7.9499 12.7124 7.5074C13.0874 7.1174 13.6199 6.8999 14.1824 6.8999H15.7499C16.4924 6.9224 17.0624 7.50737 17.0624 8.22737V9.77242C17.0624 10.4924 16.4925 11.0774 15.7725 11.0999H14.2799ZM15.7274 8.0249H14.1899C13.9274 8.0249 13.6874 8.1224 13.5149 8.3024C13.2974 8.5124 13.1924 8.79738 13.2224 9.08238C13.2599 9.57738 13.7399 9.97488 14.2799 9.97488H15.7499C15.8474 9.97488 15.9374 9.88492 15.9374 9.77242V8.22737C15.9374 8.11487 15.8474 8.0324 15.7274 8.0249Z" fill="#888888"/>
<path d="M12 15.9375H5.25C2.67 15.9375 0.9375 14.205 0.9375 11.625V6.375C0.9375 4.065 2.36248 2.39251 4.57498 2.11501C4.77748 2.08501 5.01 2.0625 5.25 2.0625H12C12.18 2.0625 12.4125 2.07 12.6525 2.1075C14.865 2.3625 16.3125 4.0425 16.3125 6.375V7.46251C16.3125 7.77001 16.0575 8.02501 15.75 8.02501H14.19C13.9275 8.02501 13.6875 8.1225 13.515 8.3025L13.5075 8.31001C13.2975 8.51251 13.2 8.78998 13.2225 9.07498C13.26 9.56998 13.74 9.96748 14.28 9.96748H15.75C16.0575 9.96748 16.3125 10.2225 16.3125 10.53V11.6175C16.3125 14.205 14.58 15.9375 12 15.9375ZM5.25 3.1875C5.07 3.1875 4.89749 3.20249 4.72499 3.22499C3.07499 3.43499 2.0625 4.635 2.0625 6.375V11.625C2.0625 13.56 3.315 14.8125 5.25 14.8125H12C13.935 14.8125 15.1875 13.56 15.1875 11.625V11.1H14.28C13.1475 11.1 12.1875 10.26 12.0975 9.17999C12.0375 8.56499 12.2625 7.95001 12.7125 7.51501C13.1025 7.11751 13.6275 6.90001 14.19 6.90001H15.1875V6.375C15.1875 4.62 14.16 3.41248 12.495 3.21748C12.315 3.18748 12.1575 3.1875 12 3.1875H5.25V3.1875Z" fill="#888888"/>
</svg>
